<?xml version="1.0" encoding="us-ascii" standalone="no"?><svg xmlns="http://www.w3.org/2000/svg" xmlns:xlink="http://www.w3.org/1999/xlink" contentStyleType="text/css" height="587px" preserveAspectRatio="none" style="width:7441px;height:587px;background:#FFFFFF;" version="1.1" viewBox="0 0 7441 587" width="7441px" zoomAndPan="magnify"><defs/><g><!--cluster Models--><g id="cluster_Models"><path d="M2682.5,51.0137 L2735.5,51.0137 A3.75,3.75 0 0 1 2738,53.5137 L2745,75.6348 L3465.5,75.6348 A2.5,2.5 0 0 1 3468,78.1348 L3468,348.5137 A2.5,2.5 0 0 1 3465.5,351.0137 L2682.5,351.0137 A2.5,2.5 0 0 1 2680,348.5137 L2680,53.5137 A2.5,2.5 0 0 1 2682.5,51.0137 " fill="none" style="stroke:#000000;stroke-width:1.5;"/><line style="stroke:#000000;stroke-width:1.5;" x1="2680" x2="2745" y1="75.6348" y2="75.6348"/><text fill="#000000" font-family="sans-serif" font-size="14" font-weight="bold" lengthAdjust="spacing" textLength="52" x="2684" y="68.1211">Models</text></g><!--cluster User--><g id="cluster_User"><path d="M2916.5,142.5137 L2950.5,142.5137 A3.75,3.75 0 0 1 2953,145.0137 L2960,167.1348 L3441.5,167.1348 A2.5,2.5 0 0 1 3444,169.6348 L3444,278.0137 A2.5,2.5 0 0 1 3441.5,280.5137 L2916.5,280.5137 A2.5,2.5 0 0 1 2914,278.0137 L2914,145.0137 A2.5,2.5 0 0 1 2916.5,142.5137 " fill="none" style="stroke:#000000;stroke-width:1.5;"/><line style="stroke:#000000;stroke-width:1.5;" x1="2914" x2="2960" y1="167.1348" y2="167.1348"/><text fill="#000000" font-family="sans-serif" font-size="14" font-weight="bold" lengthAdjust="spacing" textLength="33" x="2918" y="159.6211">User</text></g><!--cluster Criminal--><g id="cluster_Criminal"><path d="M2706.5,96.0137 L2764.5,96.0137 A3.75,3.75 0 0 1 2767,98.5137 L2774,120.6348 L2887.5,120.6348 A2.5,2.5 0 0 1 2890,123.1348 L2890,324.5137 A2.5,2.5 0 0 1 2887.5,327.0137 L2706.5,327.0137 A2.5,2.5 0 0 1 2704,324.5137 L2704,98.5137 A2.5,2.5 0 0 1 2706.5,96.0137 " fill="none" style="stroke:#000000;stroke-width:1.5;"/><line style="stroke:#000000;stroke-width:1.5;" x1="2704" x2="2774" y1="120.6348" y2="120.6348"/><text fill="#000000" font-family="sans-serif" font-size="14" font-weight="bold" lengthAdjust="spacing" textLength="57" x="2708" y="113.1211">Criminal</text></g><!--cluster IL--><g id="cluster_IL"><path d="M3494.5,51.0137 L3507.5,51.0137 A3.75,3.75 0 0 1 3510,53.5137 L3517,75.6348 L5823.5,75.6348 A2.5,2.5 0 0 1 5826,78.1348 L5826,348.5137 A2.5,2.5 0 0 1 5823.5,351.0137 L3494.5,351.0137 A2.5,2.5 0 0 1 3492,348.5137 L3492,53.5137 A2.5,2.5 0 0 1 3494.5,51.0137 " fill="none" style="stroke:#000000;stroke-width:1.5;"/><line style="stroke:#000000;stroke-width:1.5;" x1="3492" x2="3517" y1="75.6348" y2="75.6348"/><text fill="#000000" font-family="sans-serif" font-size="14" font-weight="bold" lengthAdjust="spacing" textLength="12" x="3496" y="68.1211">IL</text></g><!--cluster User--><g id="cluster_User"><path d="M5257.5,142.5137 L5291.5,142.5137 A3.75,3.75 0 0 1 5294,145.0137 L5301,167.1348 L5799.5,167.1348 A2.5,2.5 0 0 1 5802,169.6348 L5802,278.0137 A2.5,2.5 0 0 1 5799.5,280.5137 L5257.5,280.5137 A2.5,2.5 0 0 1 5255,278.0137 L5255,145.0137 A2.5,2.5 0 0 1 5257.5,142.5137 " fill="none" style="stroke:#000000;stroke-width:1.5;"/><line style="stroke:#000000;stroke-width:1.5;" x1="5255" x2="5301" y1="167.1348" y2="167.1348"/><text fill="#000000" font-family="sans-serif" font-size="14" font-weight="bold" lengthAdjust="spacing" textLength="33" x="5259" y="159.6211">User</text></g><!--cluster Criminal--><g id="cluster_Criminal"><path d="M4520.5,96.0137 L4578.5,96.0137 A3.75,3.75 0 0 1 4581,98.5137 L4588,120.6348 L5228.5,120.6348 A2.5,2.5 0 0 1 5231,123.1348 L5231,324.5137 A2.5,2.5 0 0 1 5228.5,327.0137 L4520.5,327.0137 A2.5,2.5 0 0 1 4518,324.5137 L4518,98.5137 A2.5,2.5 0 0 1 4520.5,96.0137 " fill="none" style="stroke:#000000;stroke-width:1.5;"/><line style="stroke:#000000;stroke-width:1.5;" x1="4518" x2="4588" y1="120.6348" y2="120.6348"/><text fill="#000000" font-family="sans-serif" font-size="14" font-weight="bold" lengthAdjust="spacing" textLength="57" x="4522" y="113.1211">Criminal</text></g><!--cluster Detective--><g id="cluster_Detective"><path d="M3850.5,142.5137 L3919.5,142.5137 A3.75,3.75 0 0 1 3922,145.0137 L3929,167.1348 L4491.5,167.1348 A2.5,2.5 0 0 1 4494,169.6348 L4494,278.0137 A2.5,2.5 0 0 1 4491.5,280.5137 L3850.5,280.5137 A2.5,2.5 0 0 1 3848,278.0137 L3848,145.0137 A2.5,2.5 0 0 1 3850.5,142.5137 " fill="none" style="stroke:#000000;stroke-width:1.5;"/><line style="stroke:#000000;stroke-width:1.5;" x1="3848" x2="3929" y1="167.1348" y2="167.1348"/><text fill="#000000" font-family="sans-serif" font-size="14" font-weight="bold" lengthAdjust="spacing" textLength="68" x="3852" y="159.6211">Detective</text></g><!--cluster Logger--><g id="cluster_Logger"><path d="M3518.5,142.5137 L3569.5,142.5137 A3.75,3.75 0 0 1 3572,145.0137 L3579,167.1348 L3821.5,167.1348 A2.5,2.5 0 0 1 3824,169.6348 L3824,278.0137 A2.5,2.5 0 0 1 3821.5,280.5137 L3518.5,280.5137 A2.5,2.5 0 0 1 3516,278.0137 L3516,145.0137 A2.5,2.5 0 0 1 3518.5,142.5137 " fill="none" style="stroke:#000000;stroke-width:1.5;"/><line style="stroke:#000000;stroke-width:1.5;" x1="3516" x2="3579" y1="167.1348" y2="167.1348"/><text fill="#000000" font-family="sans-serif" font-size="14" font-weight="bold" lengthAdjust="spacing" textLength="50" x="3520" y="159.6211">Logger</text></g><!--cluster DAL--><g id="cluster_DAL"><path d="M8.5,6.0137 L36.5,6.0137 A3.75,3.75 0 0 1 39,8.5137 L46,30.6348 L2030.5,30.6348 A2.5,2.5 0 0 1 2033,33.1348 L2033,577.5137 A2.5,2.5 0 0 1 2030.5,580.0137 L8.5,580.0137 A2.5,2.5 0 0 1 6,577.5137 L6,8.5137 A2.5,2.5 0 0 1 8.5,6.0137 " fill="none" style="stroke:#000000;stroke-width:1.5;"/><line style="stroke:#000000;stroke-width:1.5;" x1="6" x2="46" y1="30.6348" y2="30.6348"/><text fill="#000000" font-family="sans-serif" font-size="14" font-weight="bold" lengthAdjust="spacing" textLength="27" x="10" y="23.1211">DAL</text></g><!--cluster Repository--><g id="cluster_Repository"><path d="M1375.5,51.0137 L1452.5,51.0137 A3.75,3.75 0 0 1 1455,53.5137 L1462,75.6348 L2006.5,75.6348 A2.5,2.5 0 0 1 2009,78.1348 L2009,348.5137 A2.5,2.5 0 0 1 2006.5,351.0137 L1375.5,351.0137 A2.5,2.5 0 0 1 1373,348.5137 L1373,53.5137 A2.5,2.5 0 0 1 1375.5,51.0137 " fill="none" style="stroke:#000000;stroke-width:1.5;"/><line style="stroke:#000000;stroke-width:1.5;" x1="1373" x2="1462" y1="75.6348" y2="75.6348"/><text fill="#000000" font-family="sans-serif" font-size="14" font-weight="bold" lengthAdjust="spacing" textLength="76" x="1377" y="68.1211">Repository</text></g><!--cluster User--><g id="cluster_User"><path d="M1745.5,114.5137 L1779.5,114.5137 A3.75,3.75 0 0 1 1782,117.0137 L1789,139.1348 L1982.5,139.1348 A2.5,2.5 0 0 1 1985,141.6348 L1985,306.0137 A2.5,2.5 0 0 1 1982.5,308.5137 L1745.5,308.5137 A2.5,2.5 0 0 1 1743,306.0137 L1743,117.0137 A2.5,2.5 0 0 1 1745.5,114.5137 " fill="none" style="stroke:#000000;stroke-width:1.5;"/><line style="stroke:#000000;stroke-width:1.5;" x1="1743" x2="1789" y1="139.1348" y2="139.1348"/><text fill="#000000" font-family="sans-serif" font-size="14" font-weight="bold" lengthAdjust="spacing" textLength="33" x="1747" y="131.6211">User</text></g><!--cluster Criminal--><g id="cluster_Criminal"><path d="M1399.5,96.0137 L1457.5,96.0137 A3.75,3.75 0 0 1 1460,98.5137 L1467,120.6348 L1716.5,120.6348 A2.5,2.5 0 0 1 1719,123.1348 L1719,324.5137 A2.5,2.5 0 0 1 1716.5,327.0137 L1399.5,327.0137 A2.5,2.5 0 0 1 1397,324.5137 L1397,98.5137 A2.5,2.5 0 0 1 1399.5,96.0137 " fill="none" style="stroke:#000000;stroke-width:1.5;"/><line style="stroke:#000000;stroke-width:1.5;" x1="1397" x2="1467" y1="120.6348" y2="120.6348"/><text fill="#000000" font-family="sans-serif" font-size="14" font-weight="bold" lengthAdjust="spacing" textLength="57" x="1401" y="113.1211">Criminal</text></g><!--cluster Logger--><g id="cluster_Logger"><path d="M729.5,124.0137 L780.5,124.0137 A3.75,3.75 0 0 1 783,126.5137 L790,148.6348 L1346.5,148.6348 A2.5,2.5 0 0 1 1349,151.1348 L1349,553.5137 A2.5,2.5 0 0 1 1346.5,556.0137 L729.5,556.0137 A2.5,2.5 0 0 1 727,553.5137 L727,126.5137 A2.5,2.5 0 0 1 729.5,124.0137 " fill="none" style="stroke:#000000;stroke-width:1.5;"/><line style="stroke:#000000;stroke-width:1.5;" x1="727" x2="790" y1="148.6348" y2="148.6348"/><text fill="#000000" font-family="sans-serif" font-size="14" font-weight="bold" lengthAdjust="spacing" textLength="50" x="731" y="141.1211">Logger</text></g><!--cluster Json--><g id="cluster_Json"><path d="M32.5,114.5137 L67.5,114.5137 A3.75,3.75 0 0 1 70,117.0137 L77,139.1348 L700.5,139.1348 A2.5,2.5 0 0 1 703,141.6348 L703,306.0137 A2.5,2.5 0 0 1 700.5,308.5137 L32.5,308.5137 A2.5,2.5 0 0 1 30,306.0137 L30,117.0137 A2.5,2.5 0 0 1 32.5,114.5137 " fill="none" style="stroke:#000000;stroke-width:1.5;"/><line style="stroke:#000000;stroke-width:1.5;" x1="30" x2="77" y1="139.1348" y2="139.1348"/><text fill="#000000" font-family="sans-serif" font-size="14" font-weight="bold" lengthAdjust="spacing" textLength="34" x="34" y="131.6211">Json</text></g><!--cluster BLL--><g id="cluster_BLL"><path d="M5852.5,23.0137 L5879.5,23.0137 A3.75,3.75 0 0 1 5882,25.5137 L5889,47.6348 L7431.5,47.6348 A2.5,2.5 0 0 1 7434,50.1348 L7434,376.5137 A2.5,2.5 0 0 1 7431.5,379.0137 L5852.5,379.0137 A2.5,2.5 0 0 1 5850,376.5137 L5850,25.5137 A2.5,2.5 0 0 1 5852.5,23.0137 " fill="none" style="stroke:#000000;stroke-width:1.5;"/><line style="stroke:#000000;stroke-width:1.5;" x1="5850" x2="5889" y1="47.6348" y2="47.6348"/><text fill="#000000" font-family="sans-serif" font-size="14" font-weight="bold" lengthAdjust="spacing" textLength="26" x="5854" y="40.1211">BLL</text></g><!--cluster Criminal--><g id="cluster_Criminal"><path d="M7204.5,96.0137 L7262.5,96.0137 A3.75,3.75 0 0 1 7265,98.5137 L7272,120.6348 L7407.5,120.6348 A2.5,2.5 0 0 1 7410,123.1348 L7410,324.5137 A2.5,2.5 0 0 1 7407.5,327.0137 L7204.5,327.0137 A2.5,2.5 0 0 1 7202,324.5137 L7202,98.5137 A2.5,2.5 0 0 1 7204.5,96.0137 " fill="none" style="stroke:#000000;stroke-width:1.5;"/><line style="stroke:#000000;stroke-width:1.5;" x1="7202" x2="7272" y1="120.6348" y2="120.6348"/><text fill="#000000" font-family="sans-serif" font-size="14" font-weight="bold" lengthAdjust="spacing" textLength="57" x="7206" y="113.1211">Criminal</text></g><!--cluster Detective--><g id="cluster_Detective"><path d="M6213.5,68.0137 L6282.5,68.0137 A3.75,3.75 0 0 1 6285,70.5137 L6292,92.6348 L7175.5,92.6348 A2.5,2.5 0 0 1 7178,95.1348 L7178,352.5137 A2.5,2.5 0 0 1 7175.5,355.0137 L6213.5,355.0137 A2.5,2.5 0 0 1 6211,352.5137 L6211,70.5137 A2.5,2.5 0 0 1 6213.5,68.0137 " fill="none" style="stroke:#000000;stroke-width:1.5;"/><line style="stroke:#000000;stroke-width:1.5;" x1="6211" x2="6292" y1="92.6348" y2="92.6348"/><text fill="#000000" font-family="sans-serif" font-size="14" font-weight="bold" lengthAdjust="spacing" textLength="68" x="6215" y="85.1211">Detective</text></g><!--cluster VL--><g id="cluster_VL"><path d="M2059.5,96.0137 L2077.5,96.0137 A3.75,3.75 0 0 1 2080,98.5137 L2087,120.6348 L2653.5,120.6348 A2.5,2.5 0 0 1 2656,123.1348 L2656,544.0137 A2.5,2.5 0 0 1 2653.5,546.5137 L2059.5,546.5137 A2.5,2.5 0 0 1 2057,544.0137 L2057,98.5137 A2.5,2.5 0 0 1 2059.5,96.0137 " fill="none" style="stroke:#000000;stroke-width:1.5;"/><line style="stroke:#000000;stroke-width:1.5;" x1="2057" x2="2087" y1="120.6348" y2="120.6348"/><text fill="#000000" font-family="sans-serif" font-size="14" font-weight="bold" lengthAdjust="spacing" textLength="17" x="2061" y="113.1211">VL</text></g><!--class User--><g id="elem_User"><rect codeLine="4" fill="#F1F1F1" height="85.2422" id="User" rx="2.5" ry="2.5" style="stroke:#181818;stroke-width:0.5;" width="133" x="3294.5" y="179.5137"/><ellipse cx="3342.25" cy="195.5137" fill="#ADD1B2" rx="11" ry="11" style="stroke:#181818;stroke-width:1.0;"/><path d="M3345.0156,191.3887 Q3345.1719,191.1699 3345.3594,191.0605 Q3345.5469,190.9512 3345.7656,190.9512 Q3346.1406,190.9512 3346.375,191.2168 Q3346.6094,191.4668 3346.6094,192.0762 L3346.6094,193.5293 Q3346.6094,194.1387 3346.375,194.4043 Q3346.1406,194.6699 3345.7656,194.6699 Q3345.4219,194.6699 3345.2188,194.4668 Q3345.0156,194.2793 3344.9063,193.7637 Q3344.8594,193.4043 3344.6719,193.2168 Q3344.3438,192.8418 3343.7344,192.623 Q3343.125,192.4043 3342.5,192.4043 Q3341.7344,192.4043 3341.0938,192.7324 Q3340.4688,193.0605 3339.9688,193.8105 Q3339.4844,194.5605 3339.4844,195.5918 L3339.4844,196.6855 Q3339.4844,197.9199 3340.375,198.748 Q3341.2656,199.5605 3342.8594,199.5605 Q3343.7969,199.5605 3344.4531,199.3105 Q3344.8438,199.1543 3345.2656,198.7168 Q3345.5313,198.4512 3345.6719,198.373 Q3345.8281,198.2949 3346.0313,198.2949 Q3346.3594,198.2949 3346.6094,198.5605 Q3346.875,198.8105 3346.875,199.1543 Q3346.875,199.498 3346.5313,199.9043 Q3346.0313,200.4824 3345.2344,200.8105 Q3344.1563,201.2637 3342.8594,201.2637 Q3341.3438,201.2637 3340.1406,200.6387 Q3339.1563,200.1387 3338.4688,199.0762 Q3337.7813,197.998 3337.7813,196.7168 L3337.7813,195.5605 Q3337.7813,194.2324 3338.3906,193.0918 Q3339.0156,191.9355 3340.1094,191.3262 Q3341.2031,190.7012 3342.4375,190.7012 Q3343.1719,190.7012 3343.8125,190.873 Q3344.4688,191.0293 3345.0156,191.3887 Z " fill="#000000"/><text fill="#000000" font-family="sans-serif" font-size="14" lengthAdjust="spacing" textLength="29" x="3362.75" y="201.3105">User</text><line style="stroke:#181818;stroke-width:0.5;" x1="3295.5" x2="3426.5" y1="211.5137" y2="211.5137"/><ellipse cx="3305.5" cy="226.3242" fill="none" rx="3" ry="3" style="stroke:#038048;stroke-width:1.0;"/><text fill="#000000" font-family="sans-serif" font-size="14" lengthAdjust="spacing" textLength="77" x="3314.5" y="230.6211">login : string</text><ellipse cx="3305.5" cy="244.9453" fill="none" rx="3" ry="3" style="stroke:#038048;stroke-width:1.0;"/><text fill="#000000" font-family="sans-serif" font-size="14" lengthAdjust="spacing" textLength="107" x="3314.5" y="249.2422">password : string</text><line style="stroke:#181818;stroke-width:0.5;" x1="3295.5" x2="3426.5" y1="256.7559" y2="256.7559"/></g><!--class UserFactory--><g id="elem_UserFactory"><rect codeLine="8" fill="#F1F1F1" height="66.6211" id="UserFactory" rx="2.5" ry="2.5" style="stroke:#181818;stroke-width:0.5;" width="329" x="2930.5" y="188.5137"/><ellipse cx="3051.75" cy="204.5137" fill="#A9DCDF" rx="11" ry="11" style="stroke:#181818;stroke-width:1.0;"/><path d="M3053.9375,206.2793 L3049.7969,206.2793 L3049.375,207.3105 L3049.7969,207.3105 Q3050.4063,207.3105 3050.6719,207.5449 Q3050.9375,207.7793 3050.9375,208.1699 Q3050.9375,208.5449 3050.6719,208.7793 Q3050.4063,209.0137 3049.7969,209.0137 L3047.5,209.0137 Q3046.8906,209.0137 3046.6406,208.7793 Q3046.375,208.5449 3046.375,208.1543 Q3046.375,207.7793 3046.6563,207.5449 Q3046.9219,207.2949 3047.5469,207.3105 L3050.2188,200.6543 L3049.1094,200.6543 Q3048.5,200.6543 3048.2344,200.4199 Q3047.9688,200.1855 3047.9688,199.7949 Q3047.9688,199.4199 3048.2344,199.1855 Q3048.5,198.9512 3049.1094,198.9512 L3052.7813,198.9512 L3056.1719,207.3105 Q3056.7656,207.3105 3056.9531,207.4512 Q3057.3438,207.7168 3057.3438,208.1699 Q3057.3438,208.5449 3057.0781,208.7793 Q3056.8281,209.0137 3056.2188,209.0137 L3053.9219,209.0137 Q3053.3125,209.0137 3053.0469,208.7793 Q3052.7813,208.5449 3052.7813,208.1543 Q3052.7813,207.7793 3053.0469,207.5449 Q3053.3125,207.3105 3053.9219,207.3105 L3054.3438,207.3105 L3053.9375,206.2793 Z M3053.2188,204.5762 L3051.8594,201.2012 L3050.4844,204.5762 L3053.2188,204.5762 Z " fill="#000000"/><text fill="#000000" font-family="sans-serif" font-size="14" font-style="italic" lengthAdjust="spacing" textLength="78" x="3072.25" y="210.3105">UserFactory</text><line style="stroke:#181818;stroke-width:0.5;" x1="2931.5" x2="3258.5" y1="220.5137" y2="220.5137"/><line style="stroke:#181818;stroke-width:0.5;" x1="2931.5" x2="3258.5" y1="228.5137" y2="228.5137"/><ellipse cx="2941.5" cy="243.3242" fill="#84BE84" rx="3" ry="3" style="stroke:#038048;stroke-width:1.0;"/><text fill="#000000" font-family="sans-serif" font-size="14" lengthAdjust="spacing" text-decoration="underline" textLength="303" x="2950.5" y="247.6211">CreateUser(login: string, password: string): User</text></g><!--class Criminal--><g id="elem_Criminal"><rect codeLine="14" fill="#F1F1F1" height="178.3477" id="Criminal" rx="2.5" ry="2.5" style="stroke:#181818;stroke-width:0.5;" width="153" x="2720.5" y="133.0137"/><ellipse cx="2767.25" cy="149.0137" fill="#ADD1B2" rx="11" ry="11" style="stroke:#181818;stroke-width:1.0;"/><path d="M2770.0156,144.8887 Q2770.1719,144.6699 2770.3594,144.5605 Q2770.5469,144.4512 2770.7656,144.4512 Q2771.1406,144.4512 2771.375,144.7168 Q2771.6094,144.9668 2771.6094,145.5762 L2771.6094,147.0293 Q2771.6094,147.6387 2771.375,147.9043 Q2771.1406,148.1699 2770.7656,148.1699 Q2770.4219,148.1699 2770.2188,147.9668 Q2770.0156,147.7793 2769.9063,147.2637 Q2769.8594,146.9043 2769.6719,146.7168 Q2769.3438,146.3418 2768.7344,146.123 Q2768.125,145.9043 2767.5,145.9043 Q2766.7344,145.9043 2766.0938,146.2324 Q2765.4688,146.5605 2764.9688,147.3105 Q2764.4844,148.0605 2764.4844,149.0918 L2764.4844,150.1855 Q2764.4844,151.4199 2765.375,152.248 Q2766.2656,153.0605 2767.8594,153.0605 Q2768.7969,153.0605 2769.4531,152.8105 Q2769.8438,152.6543 2770.2656,152.2168 Q2770.5313,151.9512 2770.6719,151.873 Q2770.8281,151.7949 2771.0313,151.7949 Q2771.3594,151.7949 2771.6094,152.0605 Q2771.875,152.3105 2771.875,152.6543 Q2771.875,152.998 2771.5313,153.4043 Q2771.0313,153.9824 2770.2344,154.3105 Q2769.1563,154.7637 2767.8594,154.7637 Q2766.3438,154.7637 2765.1406,154.1387 Q2764.1563,153.6387 2763.4688,152.5762 Q2762.7813,151.498 2762.7813,150.2168 L2762.7813,149.0605 Q2762.7813,147.7324 2763.3906,146.5918 Q2764.0156,145.4355 2765.1094,144.8262 Q2766.2031,144.2012 2767.4375,144.2012 Q2768.1719,144.2012 2768.8125,144.373 Q2769.4688,144.5293 2770.0156,144.8887 Z " fill="#000000"/><text fill="#000000" font-family="sans-serif" font-size="14" lengthAdjust="spacing" textLength="51" x="2787.75" y="154.8105">Criminal</text><line style="stroke:#181818;stroke-width:0.5;" x1="2721.5" x2="2872.5" y1="165.0137" y2="165.0137"/><ellipse cx="2731.5" cy="179.8242" fill="none" rx="3" ry="3" style="stroke:#038048;stroke-width:1.0;"/><text fill="#000000" font-family="sans-serif" font-size="14" lengthAdjust="spacing" textLength="53" x="2740.5" y="184.1211">id : Guid</text><ellipse cx="2731.5" cy="198.4453" fill="none" rx="3" ry="3" style="stroke:#038048;stroke-width:1.0;"/><text fill="#000000" font-family="sans-serif" font-size="14" lengthAdjust="spacing" textLength="106" x="2740.5" y="202.7422">firstName : string</text><ellipse cx="2731.5" cy="217.0664" fill="none" rx="3" ry="3" style="stroke:#038048;stroke-width:1.0;"/><text fill="#000000" font-family="sans-serif" font-size="14" lengthAdjust="spacing" textLength="105" x="2740.5" y="221.3633">lastName : string</text><ellipse cx="2731.5" cy="235.6875" fill="none" rx="3" ry="3" style="stroke:#038048;stroke-width:1.0;"/><text fill="#000000" font-family="sans-serif" font-size="14" lengthAdjust="spacing" textLength="66" x="2740.5" y="239.9844">height : int</text><ellipse cx="2731.5" cy="254.3086" fill="none" rx="3" ry="3" style="stroke:#038048;stroke-width:1.0;"/><text fill="#000000" font-family="sans-serif" font-size="14" lengthAdjust="spacing" textLength="67" x="2740.5" y="258.6055">weight : int</text><ellipse cx="2731.5" cy="272.9297" fill="none" rx="3" ry="3" style="stroke:#038048;stroke-width:1.0;"/><text fill="#000000" font-family="sans-serif" font-size="14" lengthAdjust="spacing" textLength="111" x="2740.5" y="277.2266">nationality : string</text><ellipse cx="2731.5" cy="291.5508" fill="none" rx="3" ry="3" style="stroke:#038048;stroke-width:1.0;"/><text fill="#000000" font-family="sans-serif" font-size="14" lengthAdjust="spacing" textLength="127" x="2740.5" y="295.8477">isArrested : boolean</text><line style="stroke:#181818;stroke-width:0.5;" x1="2721.5" x2="2872.5" y1="303.3613" y2="303.3613"/></g><!--class IUserRepository--><g id="elem_IUserRepository"><rect codeLine="28" fill="#F1F1F1" height="66.6211" id="IUserRepository" rx="2.5" ry="2.5" style="stroke:#181818;stroke-width:0.5;" width="210" x="5576" y="188.5137"/><ellipse cx="5625.75" cy="204.5137" fill="#B4A7E5" rx="11" ry="11" style="stroke:#181818;stroke-width:1.0;"/><path d="M5626.7031,201.1543 L5626.7031,207.8105 L5628.4219,207.8105 Q5629.0313,207.8105 5629.2969,208.0449 Q5629.5625,208.2793 5629.5625,208.6699 Q5629.5625,209.0449 5629.2969,209.2793 Q5629.0313,209.5137 5628.4219,209.5137 L5623.2813,209.5137 Q5622.6719,209.5137 5622.4063,209.2793 Q5622.1406,209.0449 5622.1406,208.6543 Q5622.1406,208.2793 5622.4063,208.0449 Q5622.6719,207.8105 5623.2813,207.8105 L5625,207.8105 L5625,201.1543 L5623.2813,201.1543 Q5622.6719,201.1543 5622.4063,200.9199 Q5622.1406,200.6855 5622.1406,200.2949 Q5622.1406,199.9199 5622.4063,199.6855 Q5622.6719,199.4512 5623.2813,199.4512 L5628.4219,199.4512 Q5629.0313,199.4512 5629.2969,199.6855 Q5629.5625,199.9199 5629.5625,200.2949 Q5629.5625,200.6855 5629.2969,200.9199 Q5629.0313,201.1543 5628.4219,201.1543 L5626.7031,201.1543 Z " fill="#000000"/><text fill="#000000" font-family="sans-serif" font-size="14" font-style="italic" lengthAdjust="spacing" textLength="102" x="5646.25" y="210.3105">IUserRepository</text><line style="stroke:#181818;stroke-width:0.5;" x1="5577" x2="5785" y1="220.5137" y2="220.5137"/><line style="stroke:#181818;stroke-width:0.5;" x1="5577" x2="5785" y1="228.5137" y2="228.5137"/><ellipse cx="5587" cy="243.3242" fill="#84BE84" rx="3" ry="3" style="stroke:#038048;stroke-width:1.0;"/><text fill="#000000" font-family="sans-serif" font-size="14" lengthAdjust="spacing" textLength="184" x="5596" y="247.6211">GetAll() : IEnumerable&lt;User&gt;</text></g><!--class IUserSerializer--><g id="elem_IUserSerializer"><rect codeLine="31" fill="#F1F1F1" height="85.2422" id="IUserSerializer" rx="2.5" ry="2.5" style="stroke:#181818;stroke-width:0.5;" width="270" x="5271" y="179.5137"/><ellipse cx="5355.25" cy="195.5137" fill="#B4A7E5" rx="11" ry="11" style="stroke:#181818;stroke-width:1.0;"/><path d="M5356.2031,192.1543 L5356.2031,198.8105 L5357.9219,198.8105 Q5358.5313,198.8105 5358.7969,199.0449 Q5359.0625,199.2793 5359.0625,199.6699 Q5359.0625,200.0449 5358.7969,200.2793 Q5358.5313,200.5137 5357.9219,200.5137 L5352.7813,200.5137 Q5352.1719,200.5137 5351.9063,200.2793 Q5351.6406,200.0449 5351.6406,199.6543 Q5351.6406,199.2793 5351.9063,199.0449 Q5352.1719,198.8105 5352.7813,198.8105 L5354.5,198.8105 L5354.5,192.1543 L5352.7813,192.1543 Q5352.1719,192.1543 5351.9063,191.9199 Q5351.6406,191.6855 5351.6406,191.2949 Q5351.6406,190.9199 5351.9063,190.6855 Q5352.1719,190.4512 5352.7813,190.4512 L5357.9219,190.4512 Q5358.5313,190.4512 5358.7969,190.6855 Q5359.0625,190.9199 5359.0625,191.2949 Q5359.0625,191.6855 5358.7969,191.9199 Q5358.5313,192.1543 5357.9219,192.1543 L5356.2031,192.1543 Z " fill="#000000"/><text fill="#000000" font-family="sans-serif" font-size="14" font-style="italic" lengthAdjust="spacing" textLength="93" x="5375.75" y="201.3105">IUserSerializer</text><line style="stroke:#181818;stroke-width:0.5;" x1="5272" x2="5540" y1="211.5137" y2="211.5137"/><line style="stroke:#181818;stroke-width:0.5;" x1="5272" x2="5540" y1="219.5137" y2="219.5137"/><ellipse cx="5282" cy="234.3242" fill="#84BE84" rx="3" ry="3" style="stroke:#038048;stroke-width:1.0;"/><text fill="#000000" font-family="sans-serif" font-size="14" lengthAdjust="spacing" textLength="130" x="5291" y="238.6211">SerializeUser() : void</text><ellipse cx="5282" cy="252.9453" fill="#84BE84" rx="3" ry="3" style="stroke:#038048;stroke-width:1.0;"/><text fill="#000000" font-family="sans-serif" font-size="14" lengthAdjust="spacing" textLength="244" x="5291" y="257.2422">DeserializeUser() : IEnumerable&lt;User&gt;</text></g><!--class ICriminalRepository--><g id="elem_ICriminalRepository"><rect codeLine="37" fill="#F1F1F1" height="103.8633" id="ICriminalRepository" rx="2.5" ry="2.5" style="stroke:#181818;stroke-width:0.5;" width="300" x="4915" y="170.0137"/><ellipse cx="4999.25" cy="186.0137" fill="#B4A7E5" rx="11" ry="11" style="stroke:#181818;stroke-width:1.0;"/><path d="M5000.2031,182.6543 L5000.2031,189.3105 L5001.9219,189.3105 Q5002.5313,189.3105 5002.7969,189.5449 Q5003.0625,189.7793 5003.0625,190.1699 Q5003.0625,190.5449 5002.7969,190.7793 Q5002.5313,191.0137 5001.9219,191.0137 L4996.7813,191.0137 Q4996.1719,191.0137 4995.9063,190.7793 Q4995.6406,190.5449 4995.6406,190.1543 Q4995.6406,189.7793 4995.9063,189.5449 Q4996.1719,189.3105 4996.7813,189.3105 L4998.5,189.3105 L4998.5,182.6543 L4996.7813,182.6543 Q4996.1719,182.6543 4995.9063,182.4199 Q4995.6406,182.1855 4995.6406,181.7949 Q4995.6406,181.4199 4995.9063,181.1855 Q4996.1719,180.9512 4996.7813,180.9512 L5001.9219,180.9512 Q5002.5313,180.9512 5002.7969,181.1855 Q5003.0625,181.4199 5003.0625,181.7949 Q5003.0625,182.1855 5002.7969,182.4199 Q5002.5313,182.6543 5001.9219,182.6543 L5000.2031,182.6543 Z " fill="#000000"/><text fill="#000000" font-family="sans-serif" font-size="14" font-style="italic" lengthAdjust="spacing" textLength="123" x="5019.75" y="191.8105">ICriminalRepository</text><line style="stroke:#181818;stroke-width:0.5;" x1="4916" x2="5214" y1="202.0137" y2="202.0137"/><line style="stroke:#181818;stroke-width:0.5;" x1="4916" x2="5214" y1="210.0137" y2="210.0137"/><ellipse cx="4926" cy="224.8242" fill="#84BE84" rx="3" ry="3" style="stroke:#038048;stroke-width:1.0;"/><text fill="#000000" font-family="sans-serif" font-size="14" lengthAdjust="spacing" textLength="206" x="4935" y="229.1211">GetAll() : IEnumerable&lt;Criminal&gt;</text><ellipse cx="4926" cy="243.4453" fill="#84BE84" rx="3" ry="3" style="stroke:#038048;stroke-width:1.0;"/><text fill="#000000" font-family="sans-serif" font-size="14" lengthAdjust="spacing" textLength="274" x="4935" y="247.7422">GetOnlyArrested() : IEnumerable&lt;Criminal&gt;</text><ellipse cx="4926" cy="262.0664" fill="#84BE84" rx="3" ry="3" style="stroke:#038048;stroke-width:1.0;"/><text fill="#000000" font-family="sans-serif" font-size="14" lengthAdjust="spacing" textLength="266" x="4935" y="266.3633">GetNotArrested() : IEnumerable&lt;Criminal&gt;</text></g><!--class ICriminalSerializer--><g id="elem_ICriminalSerializer"><rect codeLine="42" fill="#F1F1F1" height="178.3477" id="ICriminalSerializer" rx="2.5" ry="2.5" style="stroke:#181818;stroke-width:0.5;" width="346" x="4534" y="133.0137"/><ellipse cx="4645.75" cy="149.0137" fill="#B4A7E5" rx="11" ry="11" style="stroke:#181818;stroke-width:1.0;"/><path d="M4646.7031,145.6543 L4646.7031,152.3105 L4648.4219,152.3105 Q4649.0313,152.3105 4649.2969,152.5449 Q4649.5625,152.7793 4649.5625,153.1699 Q4649.5625,153.5449 4649.2969,153.7793 Q4649.0313,154.0137 4648.4219,154.0137 L4643.2813,154.0137 Q4642.6719,154.0137 4642.4063,153.7793 Q4642.1406,153.5449 4642.1406,153.1543 Q4642.1406,152.7793 4642.4063,152.5449 Q4642.6719,152.3105 4643.2813,152.3105 L4645,152.3105 L4645,145.6543 L4643.2813,145.6543 Q4642.6719,145.6543 4642.4063,145.4199 Q4642.1406,145.1855 4642.1406,144.7949 Q4642.1406,144.4199 4642.4063,144.1855 Q4642.6719,143.9512 4643.2813,143.9512 L4648.4219,143.9512 Q4649.0313,143.9512 4649.2969,144.1855 Q4649.5625,144.4199 4649.5625,144.7949 Q4649.5625,145.1855 4649.2969,145.4199 Q4649.0313,145.6543 4648.4219,145.6543 L4646.7031,145.6543 Z " fill="#000000"/><text fill="#000000" font-family="sans-serif" font-size="14" font-style="italic" lengthAdjust="spacing" textLength="114" x="4666.25" y="154.8105">ICriminalSerializer</text><line style="stroke:#181818;stroke-width:0.5;" x1="4535" x2="4879" y1="165.0137" y2="165.0137"/><line style="stroke:#181818;stroke-width:0.5;" x1="4535" x2="4879" y1="173.0137" y2="173.0137"/><ellipse cx="4545" cy="187.8242" fill="#84BE84" rx="3" ry="3" style="stroke:#038048;stroke-width:1.0;"/><text fill="#000000" font-family="sans-serif" font-size="14" lengthAdjust="spacing" textLength="174" x="4554" y="192.1211">SerializeAllCriminals() : void</text><ellipse cx="4545" cy="206.4453" fill="#84BE84" rx="3" ry="3" style="stroke:#038048;stroke-width:1.0;"/><text fill="#000000" font-family="sans-serif" font-size="14" lengthAdjust="spacing" textLength="213" x="4554" y="210.7422">SerializeArrestedCriminals() : void</text><ellipse cx="4545" cy="225.0664" fill="#84BE84" rx="3" ry="3" style="stroke:#038048;stroke-width:1.0;"/><text fill="#000000" font-family="sans-serif" font-size="14" lengthAdjust="spacing" textLength="234" x="4554" y="229.3633">SerializeNotArrestedCriminals() : void</text><text fill="#000000" font-family="sans-serif" font-size="14" lengthAdjust="spacing" textLength="4" x="4554" y="247.9844">&#160;</text><ellipse cx="4545" cy="262.3086" fill="#84BE84" rx="3" ry="3" style="stroke:#038048;stroke-width:1.0;"/><text fill="#000000" font-family="sans-serif" font-size="14" lengthAdjust="spacing" textLength="310" x="4554" y="266.6055">DeserializeAllCriminals() : IEnumerable&lt;Criminal&gt;</text><ellipse cx="4545" cy="280.9297" fill="#84BE84" rx="3" ry="3" style="stroke:#038048;stroke-width:1.0;"/><text fill="#000000" font-family="sans-serif" font-size="14" lengthAdjust="spacing" textLength="320" x="4554" y="285.2266">DeserializeOnlyArrested() : IEnumerable&lt;Criminal&gt;</text><ellipse cx="4545" cy="299.5508" fill="#84BE84" rx="3" ry="3" style="stroke:#038048;stroke-width:1.0;"/><text fill="#000000" font-family="sans-serif" font-size="14" lengthAdjust="spacing" textLength="312" x="4554" y="303.8477">DeserializeNotArrested() : IEnumerable&lt;Criminal&gt;</text></g><!--class IDetective--><g id="elem_IDetective"><rect codeLine="53" fill="#F1F1F1" height="85.2422" id="IDetective" rx="2.5" ry="2.5" style="stroke:#181818;stroke-width:0.5;" width="614" x="3864" y="179.5137"/><ellipse cx="4135.75" cy="195.5137" fill="#B4A7E5" rx="11" ry="11" style="stroke:#181818;stroke-width:1.0;"/><path d="M4136.7031,192.1543 L4136.7031,198.8105 L4138.4219,198.8105 Q4139.0313,198.8105 4139.2969,199.0449 Q4139.5625,199.2793 4139.5625,199.6699 Q4139.5625,200.0449 4139.2969,200.2793 Q4139.0313,200.5137 4138.4219,200.5137 L4133.2813,200.5137 Q4132.6719,200.5137 4132.4063,200.2793 Q4132.1406,200.0449 4132.1406,199.6543 Q4132.1406,199.2793 4132.4063,199.0449 Q4132.6719,198.8105 4133.2813,198.8105 L4135,198.8105 L4135,192.1543 L4133.2813,192.1543 Q4132.6719,192.1543 4132.4063,191.9199 Q4132.1406,191.6855 4132.1406,191.2949 Q4132.1406,190.9199 4132.4063,190.6855 Q4132.6719,190.4512 4133.2813,190.4512 L4138.4219,190.4512 Q4139.0313,190.4512 4139.2969,190.6855 Q4139.5625,190.9199 4139.5625,191.2949 Q4139.5625,191.6855 4139.2969,191.9199 Q4139.0313,192.1543 4138.4219,192.1543 L4136.7031,192.1543 Z " fill="#000000"/><text fill="#000000" font-family="sans-serif" font-size="14" font-style="italic" lengthAdjust="spacing" textLength="62" x="4156.25" y="201.3105">IDetective</text><line style="stroke:#181818;stroke-width:0.5;" x1="3865" x2="4477" y1="211.5137" y2="211.5137"/><line style="stroke:#181818;stroke-width:0.5;" x1="3865" x2="4477" y1="219.5137" y2="219.5137"/><ellipse cx="3875" cy="234.3242" fill="#84BE84" rx="3" ry="3" style="stroke:#038048;stroke-width:1.0;"/><text fill="#000000" font-family="sans-serif" font-size="14" lengthAdjust="spacing" textLength="588" x="3884" y="238.6211">FindCriminalByParameters(height : int, weight: int, nationality: string) : IEnumerable&lt;Criminal&gt;</text><ellipse cx="3875" cy="252.9453" fill="#84BE84" rx="3" ry="3" style="stroke:#038048;stroke-width:1.0;"/><text fill="#000000" font-family="sans-serif" font-size="14" lengthAdjust="spacing" textLength="509" x="3884" y="257.2422">GetArrestedCriminals(criminal : IEnumerable&lt;Criminal&gt;) : IEnumerable&lt;Criminal&gt;</text></g><!--class ILoggerMessage--><g id="elem_ILoggerMessage"><rect codeLine="59" fill="#F1F1F1" height="85.2422" id="ILoggerMessage" rx="2.5" ry="2.5" style="stroke:#181818;stroke-width:0.5;" width="276" x="3532" y="179.5137"/><ellipse cx="3612.25" cy="195.5137" fill="#B4A7E5" rx="11" ry="11" style="stroke:#181818;stroke-width:1.0;"/><path d="M3613.2031,192.1543 L3613.2031,198.8105 L3614.9219,198.8105 Q3615.5313,198.8105 3615.7969,199.0449 Q3616.0625,199.2793 3616.0625,199.6699 Q3616.0625,200.0449 3615.7969,200.2793 Q3615.5313,200.5137 3614.9219,200.5137 L3609.7813,200.5137 Q3609.1719,200.5137 3608.9063,200.2793 Q3608.6406,200.0449 3608.6406,199.6543 Q3608.6406,199.2793 3608.9063,199.0449 Q3609.1719,198.8105 3609.7813,198.8105 L3611.5,198.8105 L3611.5,192.1543 L3609.7813,192.1543 Q3609.1719,192.1543 3608.9063,191.9199 Q3608.6406,191.6855 3608.6406,191.2949 Q3608.6406,190.9199 3608.9063,190.6855 Q3609.1719,190.4512 3609.7813,190.4512 L3614.9219,190.4512 Q3615.5313,190.4512 3615.7969,190.6855 Q3616.0625,190.9199 3616.0625,191.2949 Q3616.0625,191.6855 3615.7969,191.9199 Q3615.5313,192.1543 3614.9219,192.1543 L3613.2031,192.1543 Z " fill="#000000"/><text fill="#000000" font-family="sans-serif" font-size="14" font-style="italic" lengthAdjust="spacing" textLength="107" x="3632.75" y="201.3105">ILoggerMessage</text><line style="stroke:#181818;stroke-width:0.5;" x1="3533" x2="3807" y1="211.5137" y2="211.5137"/><line style="stroke:#181818;stroke-width:0.5;" x1="3533" x2="3807" y1="219.5137" y2="219.5137"/><ellipse cx="3543" cy="234.3242" fill="#84BE84" rx="3" ry="3" style="stroke:#038048;stroke-width:1.0;"/><text fill="#000000" font-family="sans-serif" font-size="14" lengthAdjust="spacing" textLength="250" x="3552" y="238.6211">LoggerSuccess(message : string) : void</text><ellipse cx="3543" cy="252.9453" fill="#84BE84" rx="3" ry="3" style="stroke:#038048;stroke-width:1.0;"/><text fill="#000000" font-family="sans-serif" font-size="14" lengthAdjust="spacing" textLength="229" x="3552" y="257.2422">LoggerError(message : string) : void</text></g><!--class ICriminalRepository--><g id="elem_ICriminalRepository"><rect codeLine="69" fill="#F1F1F1" height="141.1055" id="ICriminalRepository" rx="2.5" ry="2.5" style="stroke:#181818;stroke-width:0.5;" width="210" x="1759" y="151.5137"/><ellipse cx="1799.2" cy="167.5137" fill="#ADD1B2" rx="11" ry="11" style="stroke:#181818;stroke-width:1.0;"/><path d="M1801.9656,163.3887 Q1802.1219,163.1699 1802.3094,163.0605 Q1802.4969,162.9512 1802.7156,162.9512 Q1803.0906,162.9512 1803.325,163.2168 Q1803.5594,163.4668 1803.5594,164.0762 L1803.5594,165.5293 Q1803.5594,166.1387 1803.325,166.4043 Q1803.0906,166.6699 1802.7156,166.6699 Q1802.3719,166.6699 1802.1688,166.4668 Q1801.9656,166.2793 1801.8563,165.7637 Q1801.8094,165.4043 1801.6219,165.2168 Q1801.2938,164.8418 1800.6844,164.623 Q1800.075,164.4043 1799.45,164.4043 Q1798.6844,164.4043 1798.0438,164.7324 Q1797.4188,165.0605 1796.9188,165.8105 Q1796.4344,166.5605 1796.4344,167.5918 L1796.4344,168.6855 Q1796.4344,169.9199 1797.325,170.748 Q1798.2156,171.5605 1799.8094,171.5605 Q1800.7469,171.5605 1801.4031,171.3105 Q1801.7938,171.1543 1802.2156,170.7168 Q1802.4813,170.4512 1802.6219,170.373 Q1802.7781,170.2949 1802.9813,170.2949 Q1803.3094,170.2949 1803.5594,170.5605 Q1803.825,170.8105 1803.825,171.1543 Q1803.825,171.498 1803.4813,171.9043 Q1802.9813,172.4824 1802.1844,172.8105 Q1801.1063,173.2637 1799.8094,173.2637 Q1798.2938,173.2637 1797.0906,172.6387 Q1796.1063,172.1387 1795.4188,171.0762 Q1794.7313,169.998 1794.7313,168.7168 L1794.7313,167.5605 Q1794.7313,166.2324 1795.3406,165.0918 Q1795.9656,163.9355 1797.0594,163.3262 Q1798.1531,162.7012 1799.3875,162.7012 Q1800.1219,162.7012 1800.7625,162.873 Q1801.4188,163.0293 1801.9656,163.3887 Z " fill="#000000"/><text fill="#000000" font-family="sans-serif" font-size="14" lengthAdjust="spacing" textLength="122" x="1818.8" y="173.3105">ICriminalRepository</text><line style="stroke:#181818;stroke-width:0.5;" x1="1760" x2="1968" y1="183.5137" y2="183.5137"/><rect fill="none" height="6" style="stroke:#C82930;stroke-width:1.0;" width="6" x="1767" y="195.3242"/><text fill="#000000" font-family="sans-serif" font-size="14" lengthAdjust="spacing" textLength="84" x="1779" y="202.6211">users : User[]</text><text fill="#000000" font-family="sans-serif" font-size="14" lengthAdjust="spacing" textLength="4" x="1779" y="221.2422">&#160;</text><ellipse cx="1770" cy="235.5664" fill="none" rx="3" ry="3" style="stroke:#038048;stroke-width:1.0;"/><text fill="#000000" font-family="sans-serif" font-size="14" lengthAdjust="spacing" textLength="174" x="1779" y="239.8633">GetAll : IEnumerable&lt;User&gt;</text><line style="stroke:#181818;stroke-width:0.5;" x1="1760" x2="1968" y1="247.377" y2="247.377"/><rect fill="#F24D5C" height="6" style="stroke:#C82930;stroke-width:1.0;" width="6" x="1767" y="259.1875"/><text fill="#000000" font-family="sans-serif" font-size="14" lengthAdjust="spacing" textLength="184" x="1779" y="266.4844">Add(criminal : Criminal) : void</text><ellipse cx="1770" cy="280.8086" fill="#84BE84" rx="3" ry="3" style="stroke:#038048;stroke-width:1.0;"/><text fill="#000000" font-family="sans-serif" font-size="14" lengthAdjust="spacing" textLength="97" x="1779" y="285.1055">Initialize() : void</text></g><!--class ICriminalRepository--><g id="elem_ICriminalRepository"><rect codeLine="78" fill="#F1F1F1" height="178.3477" id="ICriminalRepository" rx="2.5" ry="2.5" style="stroke:#181818;stroke-width:0.5;" width="290" x="1413" y="133.0137"/><ellipse cx="1492.75" cy="149.0137" fill="#ADD1B2" rx="11" ry="11" style="stroke:#181818;stroke-width:1.0;"/><path d="M1495.5156,144.8887 Q1495.6719,144.6699 1495.8594,144.5605 Q1496.0469,144.4512 1496.2656,144.4512 Q1496.6406,144.4512 1496.875,144.7168 Q1497.1094,144.9668 1497.1094,145.5762 L1497.1094,147.0293 Q1497.1094,147.6387 1496.875,147.9043 Q1496.6406,148.1699 1496.2656,148.1699 Q1495.9219,148.1699 1495.7188,147.9668 Q1495.5156,147.7793 1495.4063,147.2637 Q1495.3594,146.9043 1495.1719,146.7168 Q1494.8438,146.3418 1494.2344,146.123 Q1493.625,145.9043 1493,145.9043 Q1492.2344,145.9043 1491.5938,146.2324 Q1490.9688,146.5605 1490.4688,147.3105 Q1489.9844,148.0605 1489.9844,149.0918 L1489.9844,150.1855 Q1489.9844,151.4199 1490.875,152.248 Q1491.7656,153.0605 1493.3594,153.0605 Q1494.2969,153.0605 1494.9531,152.8105 Q1495.3438,152.6543 1495.7656,152.2168 Q1496.0313,151.9512 1496.1719,151.873 Q1496.3281,151.7949 1496.5313,151.7949 Q1496.8594,151.7949 1497.1094,152.0605 Q1497.375,152.3105 1497.375,152.6543 Q1497.375,152.998 1497.0313,153.4043 Q1496.5313,153.9824 1495.7344,154.3105 Q1494.6563,154.7637 1493.3594,154.7637 Q1491.8438,154.7637 1490.6406,154.1387 Q1489.6563,153.6387 1488.9688,152.5762 Q1488.2813,151.498 1488.2813,150.2168 L1488.2813,149.0605 Q1488.2813,147.7324 1488.8906,146.5918 Q1489.5156,145.4355 1490.6094,144.8262 Q1491.7031,144.2012 1492.9375,144.2012 Q1493.6719,144.2012 1494.3125,144.373 Q1494.9688,144.5293 1495.5156,144.8887 Z " fill="#000000"/><text fill="#000000" font-family="sans-serif" font-size="14" lengthAdjust="spacing" textLength="122" x="1513.25" y="154.8105">ICriminalRepository</text><line style="stroke:#181818;stroke-width:0.5;" x1="1414" x2="1702" y1="165.0137" y2="165.0137"/><rect fill="none" height="6" style="stroke:#C82930;stroke-width:1.0;" width="6" x="1421" y="176.8242"/><text fill="#000000" font-family="sans-serif" font-size="14" lengthAdjust="spacing" textLength="126" x="1433" y="184.1211">criminals : Criminal[]</text><text fill="#000000" font-family="sans-serif" font-size="14" lengthAdjust="spacing" textLength="4" x="1433" y="202.7422">&#160;</text><ellipse cx="1424" cy="217.0664" fill="none" rx="3" ry="3" style="stroke:#038048;stroke-width:1.0;"/><text fill="#000000" font-family="sans-serif" font-size="14" lengthAdjust="spacing" textLength="196" x="1433" y="221.3633">GetAll : IEnumerable&lt;Criminal&gt;</text><ellipse cx="1424" cy="235.6875" fill="none" rx="3" ry="3" style="stroke:#038048;stroke-width:1.0;"/><text fill="#000000" font-family="sans-serif" font-size="14" lengthAdjust="spacing" textLength="264" x="1433" y="239.9844">GetOnlyArrested : IEnumerable&lt;Criminal&gt;</text><ellipse cx="1424" cy="254.3086" fill="none" rx="3" ry="3" style="stroke:#038048;stroke-width:1.0;"/><text fill="#000000" font-family="sans-serif" font-size="14" lengthAdjust="spacing" textLength="256" x="1433" y="258.6055">GetNotArrested : IEnumerable&lt;Criminal&gt;</text><line style="stroke:#181818;stroke-width:0.5;" x1="1414" x2="1702" y1="266.1191" y2="266.1191"/><rect fill="#F24D5C" height="6" style="stroke:#C82930;stroke-width:1.0;" width="6" x="1421" y="277.9297"/><text fill="#000000" font-family="sans-serif" font-size="14" lengthAdjust="spacing" textLength="184" x="1433" y="285.2266">Add(criminal : Criminal) : void</text><ellipse cx="1424" cy="299.5508" fill="#84BE84" rx="3" ry="3" style="stroke:#038048;stroke-width:1.0;"/><text fill="#000000" font-family="sans-serif" font-size="14" lengthAdjust="spacing" textLength="97" x="1433" y="303.8477">Initialize() : void</text></g><!--class DetectiveLog--><g id="elem_DetectiveLog"><rect codeLine="90" fill="#F1F1F1" height="122.4844" id="DetectiveLog" rx="2.5" ry="2.5" style="stroke:#181818;stroke-width:0.5;" width="333" x="743.5" y="161.0137"/><ellipse cx="864.25" cy="177.0137" fill="#ADD1B2" rx="11" ry="11" style="stroke:#181818;stroke-width:1.0;"/><path d="M867.0156,172.8887 Q867.1719,172.6699 867.3594,172.5605 Q867.5469,172.4512 867.7656,172.4512 Q868.1406,172.4512 868.375,172.7168 Q868.6094,172.9668 868.6094,173.5762 L868.6094,175.0293 Q868.6094,175.6387 868.375,175.9043 Q868.1406,176.1699 867.7656,176.1699 Q867.4219,176.1699 867.2188,175.9668 Q867.0156,175.7793 866.9063,175.2637 Q866.8594,174.9043 866.6719,174.7168 Q866.3438,174.3418 865.7344,174.123 Q865.125,173.9043 864.5,173.9043 Q863.7344,173.9043 863.0938,174.2324 Q862.4688,174.5605 861.9688,175.3105 Q861.4844,176.0605 861.4844,177.0918 L861.4844,178.1855 Q861.4844,179.4199 862.375,180.248 Q863.2656,181.0605 864.8594,181.0605 Q865.7969,181.0605 866.4531,180.8105 Q866.8438,180.6543 867.2656,180.2168 Q867.5313,179.9512 867.6719,179.873 Q867.8281,179.7949 868.0313,179.7949 Q868.3594,179.7949 868.6094,180.0605 Q868.875,180.3105 868.875,180.6543 Q868.875,180.998 868.5313,181.4043 Q868.0313,181.9824 867.2344,182.3105 Q866.1563,182.7637 864.8594,182.7637 Q863.3438,182.7637 862.1406,182.1387 Q861.1563,181.6387 860.4688,180.5762 Q859.7813,179.498 859.7813,178.2168 L859.7813,177.0605 Q859.7813,175.7324 860.3906,174.5918 Q861.0156,173.4355 862.1094,172.8262 Q863.2031,172.2012 864.4375,172.2012 Q865.1719,172.2012 865.8125,172.373 Q866.4688,172.5293 867.0156,172.8887 Z " fill="#000000"/><text fill="#000000" font-family="sans-serif" font-size="14" lengthAdjust="spacing" textLength="83" x="884.75" y="182.8105">DetectiveLog</text><line style="stroke:#181818;stroke-width:0.5;" x1="744.5" x2="1075.5" y1="193.0137" y2="193.0137"/><rect fill="none" height="6" style="stroke:#C82930;stroke-width:1.0;" width="6" x="751.5" y="204.8242"/><text fill="#000000" font-family="sans-serif" font-size="14" lengthAdjust="spacing" textLength="214" x="763.5" y="212.1211">loggerMessage : ILoggerMessage</text><line style="stroke:#181818;stroke-width:0.5;" x1="744.5" x2="1075.5" y1="219.6348" y2="219.6348"/><ellipse cx="754.5" cy="234.4453" fill="#84BE84" rx="3" ry="3" style="stroke:#038048;stroke-width:1.0;"/><text fill="#000000" font-family="sans-serif" font-size="14" lengthAdjust="spacing" textLength="307" x="763.5" y="238.7422">DetectiveLog(loggerMessage : ILoggerMessage)</text><text fill="#000000" font-family="sans-serif" font-size="14" lengthAdjust="spacing" textLength="4" x="763.5" y="257.3633">&#160;</text><ellipse cx="754.5" cy="271.6875" fill="#84BE84" rx="3" ry="3" style="stroke:#038048;stroke-width:1.0;"/><text fill="#000000" font-family="sans-serif" font-size="14" lengthAdjust="spacing" textLength="181" x="763.5" y="275.9844">IsAuth(user : User) : boolean</text></g><!--class LoggerMessages--><g id="elem_LoggerMessages"><rect codeLine="96" fill="#F1F1F1" height="85.2422" id="LoggerMessages" rx="2.5" ry="2.5" style="stroke:#181818;stroke-width:0.5;" width="221" x="1111.5" y="179.5137"/><ellipse cx="1163.25" cy="195.5137" fill="#ADD1B2" rx="11" ry="11" style="stroke:#181818;stroke-width:1.0;"/><path d="M1166.0156,191.3887 Q1166.1719,191.1699 1166.3594,191.0605 Q1166.5469,190.9512 1166.7656,190.9512 Q1167.1406,190.9512 1167.375,191.2168 Q1167.6094,191.4668 1167.6094,192.0762 L1167.6094,193.5293 Q1167.6094,194.1387 1167.375,194.4043 Q1167.1406,194.6699 1166.7656,194.6699 Q1166.4219,194.6699 1166.2188,194.4668 Q1166.0156,194.2793 1165.9063,193.7637 Q1165.8594,193.4043 1165.6719,193.2168 Q1165.3438,192.8418 1164.7344,192.623 Q1164.125,192.4043 1163.5,192.4043 Q1162.7344,192.4043 1162.0938,192.7324 Q1161.4688,193.0605 1160.9688,193.8105 Q1160.4844,194.5605 1160.4844,195.5918 L1160.4844,196.6855 Q1160.4844,197.9199 1161.375,198.748 Q1162.2656,199.5605 1163.8594,199.5605 Q1164.7969,199.5605 1165.4531,199.3105 Q1165.8438,199.1543 1166.2656,198.7168 Q1166.5313,198.4512 1166.6719,198.373 Q1166.8281,198.2949 1167.0313,198.2949 Q1167.3594,198.2949 1167.6094,198.5605 Q1167.875,198.8105 1167.875,199.1543 Q1167.875,199.498 1167.5313,199.9043 Q1167.0313,200.4824 1166.2344,200.8105 Q1165.1563,201.2637 1163.8594,201.2637 Q1162.3438,201.2637 1161.1406,200.6387 Q1160.1563,200.1387 1159.4688,199.0762 Q1158.7813,197.998 1158.7813,196.7168 L1158.7813,195.5605 Q1158.7813,194.2324 1159.3906,193.0918 Q1160.0156,191.9355 1161.1094,191.3262 Q1162.2031,190.7012 1163.4375,190.7012 Q1164.1719,190.7012 1164.8125,190.873 Q1165.4688,191.0293 1166.0156,191.3887 Z " fill="#000000"/><text fill="#000000" font-family="sans-serif" font-size="14" lengthAdjust="spacing" textLength="109" x="1183.75" y="201.3105">LoggerMessages</text><line style="stroke:#181818;stroke-width:0.5;" x1="1112.5" x2="1331.5" y1="211.5137" y2="211.5137"/><ellipse cx="1122.5" cy="226.3242" fill="none" rx="3" ry="3" style="stroke:#038048;stroke-width:1.0;"/><text fill="#000000" font-family="sans-serif" font-size="14" lengthAdjust="spacing" textLength="195" x="1131.5" y="230.6211">const SuccessMessage : string</text><ellipse cx="1122.5" cy="244.9453" fill="none" rx="3" ry="3" style="stroke:#038048;stroke-width:1.0;"/><text fill="#000000" font-family="sans-serif" font-size="14" lengthAdjust="spacing" textLength="186" x="1131.5" y="249.2422">const FailureMessage : string</text><line style="stroke:#181818;stroke-width:0.5;" x1="1112.5" x2="1331.5" y1="256.7559" y2="256.7559"/></g><!--class LogToFile--><g id="elem_LogToFile"><rect codeLine="100" fill="#F1F1F1" height="141.1055" id="LogToFile" rx="2.5" ry="2.5" style="stroke:#181818;stroke-width:0.5;" width="276" x="772" y="399.0137"/><ellipse cx="873.75" cy="415.0137" fill="#ADD1B2" rx="11" ry="11" style="stroke:#181818;stroke-width:1.0;"/><path d="M876.5156,410.8887 Q876.6719,410.6699 876.8594,410.5605 Q877.0469,410.4512 877.2656,410.4512 Q877.6406,410.4512 877.875,410.7168 Q878.1094,410.9668 878.1094,411.5762 L878.1094,413.0293 Q878.1094,413.6387 877.875,413.9043 Q877.6406,414.1699 877.2656,414.1699 Q876.9219,414.1699 876.7188,413.9668 Q876.5156,413.7793 876.4063,413.2637 Q876.3594,412.9043 876.1719,412.7168 Q875.8438,412.3418 875.2344,412.123 Q874.625,411.9043 874,411.9043 Q873.2344,411.9043 872.5938,412.2324 Q871.9688,412.5605 871.4688,413.3105 Q870.9844,414.0605 870.9844,415.0918 L870.9844,416.1855 Q870.9844,417.4199 871.875,418.248 Q872.7656,419.0605 874.3594,419.0605 Q875.2969,419.0605 875.9531,418.8105 Q876.3438,418.6543 876.7656,418.2168 Q877.0313,417.9512 877.1719,417.873 Q877.3281,417.7949 877.5313,417.7949 Q877.8594,417.7949 878.1094,418.0605 Q878.375,418.3105 878.375,418.6543 Q878.375,418.998 878.0313,419.4043 Q877.5313,419.9824 876.7344,420.3105 Q875.6563,420.7637 874.3594,420.7637 Q872.8438,420.7637 871.6406,420.1387 Q870.6563,419.6387 869.9688,418.5762 Q869.2813,417.498 869.2813,416.2168 L869.2813,415.0605 Q869.2813,413.7324 869.8906,412.5918 Q870.5156,411.4355 871.6094,410.8262 Q872.7031,410.2012 873.9375,410.2012 Q874.6719,410.2012 875.3125,410.373 Q875.9688,410.5293 876.5156,410.8887 Z " fill="#000000"/><text fill="#000000" font-family="sans-serif" font-size="14" lengthAdjust="spacing" textLength="64" x="894.25" y="420.8105">LogToFile</text><line style="stroke:#181818;stroke-width:0.5;" x1="773" x2="1047" y1="431.0137" y2="431.0137"/><rect fill="none" height="6" style="stroke:#C82930;stroke-width:1.0;" width="6" x="780" y="442.8242"/><text fill="#000000" font-family="sans-serif" font-size="14" lengthAdjust="spacing" textLength="197" x="792" y="450.1211">const DetectiveLogPath : string</text><line style="stroke:#181818;stroke-width:0.5;" x1="773" x2="1047" y1="457.6348" y2="457.6348"/><rect fill="#F24D5C" height="6" style="stroke:#C82930;stroke-width:1.0;" width="6" x="780" y="469.4453"/><text fill="#000000" font-family="sans-serif" font-size="14" lengthAdjust="spacing" text-decoration="underline" textLength="190" x="792" y="476.7422">Write(message : string)) : void</text><text fill="#000000" font-family="sans-serif" font-size="14" lengthAdjust="spacing" textLength="4" x="792" y="495.3633">&#160;</text><ellipse cx="783" cy="509.6875" fill="#84BE84" rx="3" ry="3" style="stroke:#038048;stroke-width:1.0;"/><text fill="#000000" font-family="sans-serif" font-size="14" lengthAdjust="spacing" textLength="229" x="792" y="513.9844">LoggerError(message : string) : void</text><ellipse cx="783" cy="528.3086" fill="#84BE84" rx="3" ry="3" style="stroke:#038048;stroke-width:1.0;"/><text fill="#000000" font-family="sans-serif" font-size="14" lengthAdjust="spacing" textLength="250" x="792" y="532.6055">LoggerSuccess(message : string) : void</text></g><!--class JsonContext--><g id="elem_JsonContext"><rect codeLine="109" fill="#F1F1F1" height="122.4844" id="JsonContext" rx="2.5" ry="2.5" style="stroke:#181818;stroke-width:0.5;" width="228" x="459" y="161.0137"/><ellipse cx="530.25" cy="177.0137" fill="#ADD1B2" rx="11" ry="11" style="stroke:#181818;stroke-width:1.0;"/><path d="M533.0156,172.8887 Q533.1719,172.6699 533.3594,172.5605 Q533.5469,172.4512 533.7656,172.4512 Q534.1406,172.4512 534.375,172.7168 Q534.6094,172.9668 534.6094,173.5762 L534.6094,175.0293 Q534.6094,175.6387 534.375,175.9043 Q534.1406,176.1699 533.7656,176.1699 Q533.4219,176.1699 533.2188,175.9668 Q533.0156,175.7793 532.9063,175.2637 Q532.8594,174.9043 532.6719,174.7168 Q532.3438,174.3418 531.7344,174.123 Q531.125,173.9043 530.5,173.9043 Q529.7344,173.9043 529.0938,174.2324 Q528.4688,174.5605 527.9688,175.3105 Q527.4844,176.0605 527.4844,177.0918 L527.4844,178.1855 Q527.4844,179.4199 528.375,180.248 Q529.2656,181.0605 530.8594,181.0605 Q531.7969,181.0605 532.4531,180.8105 Q532.8438,180.6543 533.2656,180.2168 Q533.5313,179.9512 533.6719,179.873 Q533.8281,179.7949 534.0313,179.7949 Q534.3594,179.7949 534.6094,180.0605 Q534.875,180.3105 534.875,180.6543 Q534.875,180.998 534.5313,181.4043 Q534.0313,181.9824 533.2344,182.3105 Q532.1563,182.7637 530.8594,182.7637 Q529.3438,182.7637 528.1406,182.1387 Q527.1563,181.6387 526.4688,180.5762 Q525.7813,179.498 525.7813,178.2168 L525.7813,177.0605 Q525.7813,175.7324 526.3906,174.5918 Q527.0156,173.4355 528.1094,172.8262 Q529.2031,172.2012 530.4375,172.2012 Q531.1719,172.2012 531.8125,172.373 Q532.4688,172.5293 533.0156,172.8887 Z " fill="#000000"/><text fill="#000000" font-family="sans-serif" font-size="14" lengthAdjust="spacing" textLength="77" x="550.75" y="182.8105">JsonContext</text><line style="stroke:#181818;stroke-width:0.5;" x1="460" x2="686" y1="193.0137" y2="193.0137"/><ellipse cx="470" cy="207.8242" fill="none" rx="3" ry="3" style="stroke:#038048;stroke-width:1.0;"/><text fill="#000000" font-family="sans-serif" font-size="14" lengthAdjust="spacing" textLength="172" x="479" y="212.1211">const CriminalsPath : string</text><ellipse cx="470" cy="226.4453" fill="none" rx="3" ry="3" style="stroke:#038048;stroke-width:1.0;"/><text fill="#000000" font-family="sans-serif" font-size="14" lengthAdjust="spacing" textLength="168" x="479" y="230.7422">const ArrestedPath : string</text><ellipse cx="470" cy="245.0664" fill="none" rx="3" ry="3" style="stroke:#038048;stroke-width:1.0;"/><text fill="#000000" font-family="sans-serif" font-size="14" lengthAdjust="spacing" textLength="189" x="479" y="249.3633">const NotArrestedPath : string</text><ellipse cx="470" cy="263.6875" fill="none" rx="3" ry="3" style="stroke:#038048;stroke-width:1.0;"/><text fill="#000000" font-family="sans-serif" font-size="14" lengthAdjust="spacing" textLength="202" x="479" y="267.9844">const UserAuthDataPath : string</text><line style="stroke:#181818;stroke-width:0.5;" x1="460" x2="686" y1="275.498" y2="275.498"/></g><!--class JsonUserDataAccess--><g id="elem_JsonUserDataAccess"><rect codeLine="115" fill="#F1F1F1" height="141.1055" id="JsonUserDataAccess" rx="2.5" ry="2.5" style="stroke:#181818;stroke-width:0.5;" width="377" x="46.5" y="151.5137"/><ellipse cx="164.25" cy="167.5137" fill="#ADD1B2" rx="11" ry="11" style="stroke:#181818;stroke-width:1.0;"/><path d="M167.0156,163.3887 Q167.1719,163.1699 167.3594,163.0605 Q167.5469,162.9512 167.7656,162.9512 Q168.1406,162.9512 168.375,163.2168 Q168.6094,163.4668 168.6094,164.0762 L168.6094,165.5293 Q168.6094,166.1387 168.375,166.4043 Q168.1406,166.6699 167.7656,166.6699 Q167.4219,166.6699 167.2188,166.4668 Q167.0156,166.2793 166.9063,165.7637 Q166.8594,165.4043 166.6719,165.2168 Q166.3438,164.8418 165.7344,164.623 Q165.125,164.4043 164.5,164.4043 Q163.7344,164.4043 163.0938,164.7324 Q162.4688,165.0605 161.9688,165.8105 Q161.4844,166.5605 161.4844,167.5918 L161.4844,168.6855 Q161.4844,169.9199 162.375,170.748 Q163.2656,171.5605 164.8594,171.5605 Q165.7969,171.5605 166.4531,171.3105 Q166.8438,171.1543 167.2656,170.7168 Q167.5313,170.4512 167.6719,170.373 Q167.8281,170.2949 168.0313,170.2949 Q168.3594,170.2949 168.6094,170.5605 Q168.875,170.8105 168.875,171.1543 Q168.875,171.498 168.5313,171.9043 Q168.0313,172.4824 167.2344,172.8105 Q166.1563,173.2637 164.8594,173.2637 Q163.3438,173.2637 162.1406,172.6387 Q161.1563,172.1387 160.4688,171.0762 Q159.7813,169.998 159.7813,168.7168 L159.7813,167.5605 Q159.7813,166.2324 160.3906,165.0918 Q161.0156,163.9355 162.1094,163.3262 Q163.2031,162.7012 164.4375,162.7012 Q165.1719,162.7012 165.8125,162.873 Q166.4688,163.0293 167.0156,163.3887 Z " fill="#000000"/><text fill="#000000" font-family="sans-serif" font-size="14" lengthAdjust="spacing" textLength="133" x="184.75" y="173.3105">JsonUserDataAccess</text><line style="stroke:#181818;stroke-width:0.5;" x1="47.5" x2="422.5" y1="183.5137" y2="183.5137"/><rect fill="none" height="6" style="stroke:#C82930;stroke-width:1.0;" width="6" x="54.5" y="195.3242"/><text fill="#000000" font-family="sans-serif" font-size="14" lengthAdjust="spacing" textLength="208" x="66.5" y="202.6211">userRepository : IUserRepository</text><line style="stroke:#181818;stroke-width:0.5;" x1="47.5" x2="422.5" y1="210.1348" y2="210.1348"/><ellipse cx="57.5" cy="224.9453" fill="#84BE84" rx="3" ry="3" style="stroke:#038048;stroke-width:1.0;"/><text fill="#000000" font-family="sans-serif" font-size="14" lengthAdjust="spacing" textLength="351" x="66.5" y="229.2422">JsonUserDataAccess(userRepository : IUserRepository)</text><text fill="#000000" font-family="sans-serif" font-size="14" lengthAdjust="spacing" textLength="4" x="66.5" y="247.8633">&#160;</text><ellipse cx="57.5" cy="262.1875" fill="#84BE84" rx="3" ry="3" style="stroke:#038048;stroke-width:1.0;"/><text fill="#000000" font-family="sans-serif" font-size="14" lengthAdjust="spacing" textLength="130" x="66.5" y="266.4844">SerializeUser() : void</text><ellipse cx="57.5" cy="280.8086" fill="#84BE84" rx="3" ry="3" style="stroke:#038048;stroke-width:1.0;"/><text fill="#000000" font-family="sans-serif" font-size="14" lengthAdjust="spacing" textLength="244" x="66.5" y="285.1055">DeserializeUser() : IEnumerable&lt;User&gt;</text></g><!--class Validator--><g id="elem_Validator"><rect codeLine="157" fill="#F1F1F1" height="103.8633" id="Validator" rx="2.5" ry="2.5" style="stroke:#181818;stroke-width:0.5;" width="326" x="5866" y="170.0137"/><ellipse cx="5996.75" cy="186.0137" fill="#ADD1B2" rx="11" ry="11" style="stroke:#181818;stroke-width:1.0;"/><path d="M5999.5156,181.8887 Q5999.6719,181.6699 5999.8594,181.5605 Q6000.0469,181.4512 6000.2656,181.4512 Q6000.6406,181.4512 6000.875,181.7168 Q6001.1094,181.9668 6001.1094,182.5762 L6001.1094,184.0293 Q6001.1094,184.6387 6000.875,184.9043 Q6000.6406,185.1699 6000.2656,185.1699 Q5999.9219,185.1699 5999.7188,184.9668 Q5999.5156,184.7793 5999.4063,184.2637 Q5999.3594,183.9043 5999.1719,183.7168 Q5998.8438,183.3418 5998.2344,183.123 Q5997.625,182.9043 5997,182.9043 Q5996.2344,182.9043 5995.5938,183.2324 Q5994.9688,183.5605 5994.4688,184.3105 Q5993.9844,185.0605 5993.9844,186.0918 L5993.9844,187.1855 Q5993.9844,188.4199 5994.875,189.248 Q5995.7656,190.0605 5997.3594,190.0605 Q5998.2969,190.0605 5998.9531,189.8105 Q5999.3438,189.6543 5999.7656,189.2168 Q6000.0313,188.9512 6000.1719,188.873 Q6000.3281,188.7949 6000.5313,188.7949 Q6000.8594,188.7949 6001.1094,189.0605 Q6001.375,189.3105 6001.375,189.6543 Q6001.375,189.998 6001.0313,190.4043 Q6000.5313,190.9824 5999.7344,191.3105 Q5998.6563,191.7637 5997.3594,191.7637 Q5995.8438,191.7637 5994.6406,191.1387 Q5993.6563,190.6387 5992.9688,189.5762 Q5992.2813,188.498 5992.2813,187.2168 L5992.2813,186.0605 Q5992.2813,184.7324 5992.8906,183.5918 Q5993.5156,182.4355 5994.6094,181.8262 Q5995.7031,181.2012 5996.9375,181.2012 Q5997.6719,181.2012 5998.3125,181.373 Q5998.9688,181.5293 5999.5156,181.8887 Z " fill="#000000"/><text fill="#000000" font-family="sans-serif" font-size="14" lengthAdjust="spacing" textLength="56" x="6017.25" y="191.8105">Validator</text><line style="stroke:#181818;stroke-width:0.5;" x1="5867" x2="6191" y1="202.0137" y2="202.0137"/><line style="stroke:#181818;stroke-width:0.5;" x1="5867" x2="6191" y1="210.0137" y2="210.0137"/><ellipse cx="5877" cy="224.8242" fill="#84BE84" rx="3" ry="3" style="stroke:#038048;stroke-width:1.0;"/><text fill="#000000" font-family="sans-serif" font-size="14" lengthAdjust="spacing" text-decoration="underline" textLength="230" x="5886" y="229.1211">ValidateHeight(height : int) : boolean</text><ellipse cx="5877" cy="243.4453" fill="#84BE84" rx="3" ry="3" style="stroke:#038048;stroke-width:1.0;"/><text fill="#000000" font-family="sans-serif" font-size="14" lengthAdjust="spacing" text-decoration="underline" textLength="235" x="5886" y="247.7422">ValidateWeight(weight : int) : boolean</text><ellipse cx="5877" cy="262.0664" fill="#84BE84" rx="3" ry="3" style="stroke:#038048;stroke-width:1.0;"/><text fill="#000000" font-family="sans-serif" font-size="14" lengthAdjust="spacing" text-decoration="underline" textLength="300" x="5886" y="266.3633">ValidateNationality(nationality : string) : boolean</text></g><!--class CriminalMessages--><g id="elem_CriminalMessages"><rect codeLine="127" fill="#F1F1F1" height="178.3477" id="CriminalMessages" rx="2.5" ry="2.5" style="stroke:#181818;stroke-width:0.5;" width="176" x="7218" y="133.0137"/><ellipse cx="7246.05" cy="149.0137" fill="#ADD1B2" rx="11" ry="11" style="stroke:#181818;stroke-width:1.0;"/><path d="M7248.8156,144.8887 Q7248.9719,144.6699 7249.1594,144.5605 Q7249.3469,144.4512 7249.5656,144.4512 Q7249.9406,144.4512 7250.175,144.7168 Q7250.4094,144.9668 7250.4094,145.5762 L7250.4094,147.0293 Q7250.4094,147.6387 7250.175,147.9043 Q7249.9406,148.1699 7249.5656,148.1699 Q7249.2219,148.1699 7249.0188,147.9668 Q7248.8156,147.7793 7248.7063,147.2637 Q7248.6594,146.9043 7248.4719,146.7168 Q7248.1438,146.3418 7247.5344,146.123 Q7246.925,145.9043 7246.3,145.9043 Q7245.5344,145.9043 7244.8938,146.2324 Q7244.2688,146.5605 7243.7688,147.3105 Q7243.2844,148.0605 7243.2844,149.0918 L7243.2844,150.1855 Q7243.2844,151.4199 7244.175,152.248 Q7245.0656,153.0605 7246.6594,153.0605 Q7247.5969,153.0605 7248.2531,152.8105 Q7248.6438,152.6543 7249.0656,152.2168 Q7249.3313,151.9512 7249.4719,151.873 Q7249.6281,151.7949 7249.8313,151.7949 Q7250.1594,151.7949 7250.4094,152.0605 Q7250.675,152.3105 7250.675,152.6543 Q7250.675,152.998 7250.3313,153.4043 Q7249.8313,153.9824 7249.0344,154.3105 Q7247.9563,154.7637 7246.6594,154.7637 Q7245.1438,154.7637 7243.9406,154.1387 Q7242.9563,153.6387 7242.2688,152.5762 Q7241.5813,151.498 7241.5813,150.2168 L7241.5813,149.0605 Q7241.5813,147.7324 7242.1906,146.5918 Q7242.8156,145.4355 7243.9094,144.8262 Q7245.0031,144.2012 7246.2375,144.2012 Q7246.9719,144.2012 7247.6125,144.373 Q7248.2688,144.5293 7248.8156,144.8887 Z " fill="#000000"/><text fill="#000000" font-family="sans-serif" font-size="14" lengthAdjust="spacing" textLength="115" x="7262.95" y="154.8105">CriminalMessages</text><line style="stroke:#181818;stroke-width:0.5;" x1="7219" x2="7393" y1="165.0137" y2="165.0137"/><ellipse cx="7229" cy="179.8242" fill="none" rx="3" ry="3" style="stroke:#038048;stroke-width:1.0;"/><text fill="#000000" font-family="sans-serif" font-size="14" lengthAdjust="spacing" textLength="96" x="7238" y="184.1211">const Id : string</text><ellipse cx="7229" cy="198.4453" fill="none" rx="3" ry="3" style="stroke:#038048;stroke-width:1.0;"/><text fill="#000000" font-family="sans-serif" font-size="14" lengthAdjust="spacing" textLength="149" x="7238" y="202.7422">const FirstName : string</text><ellipse cx="7229" cy="217.0664" fill="none" rx="3" ry="3" style="stroke:#038048;stroke-width:1.0;"/><text fill="#000000" font-family="sans-serif" font-size="14" lengthAdjust="spacing" textLength="148" x="7238" y="221.3633">const LastName : string</text><ellipse cx="7229" cy="235.6875" fill="none" rx="3" ry="3" style="stroke:#038048;stroke-width:1.0;"/><text fill="#000000" font-family="sans-serif" font-size="14" lengthAdjust="spacing" textLength="125" x="7238" y="239.9844">const Height : string</text><ellipse cx="7229" cy="254.3086" fill="none" rx="3" ry="3" style="stroke:#038048;stroke-width:1.0;"/><text fill="#000000" font-family="sans-serif" font-size="14" lengthAdjust="spacing" textLength="129" x="7238" y="258.6055">const Weight : string</text><ellipse cx="7229" cy="272.9297" fill="none" rx="3" ry="3" style="stroke:#038048;stroke-width:1.0;"/><text fill="#000000" font-family="sans-serif" font-size="14" lengthAdjust="spacing" textLength="150" x="7238" y="277.2266">const Nationality : string</text><ellipse cx="7229" cy="291.5508" fill="none" rx="3" ry="3" style="stroke:#038048;stroke-width:1.0;"/><text fill="#000000" font-family="sans-serif" font-size="14" lengthAdjust="spacing" textLength="149" x="7238" y="295.8477">const IsArrested : string</text><line style="stroke:#181818;stroke-width:0.5;" x1="7219" x2="7393" y1="303.3613" y2="303.3613"/></g><!--class DetectiveMessages--><g id="elem_DetectiveMessages"><rect codeLine="138" fill="#F1F1F1" height="141.1055" id="DetectiveMessages" rx="2.5" ry="2.5" style="stroke:#181818;stroke-width:0.5;" width="248" x="6914" y="151.5137"/><ellipse cx="6972.25" cy="167.5137" fill="#ADD1B2" rx="11" ry="11" style="stroke:#181818;stroke-width:1.0;"/><path d="M6975.0156,163.3887 Q6975.1719,163.1699 6975.3594,163.0605 Q6975.5469,162.9512 6975.7656,162.9512 Q6976.1406,162.9512 6976.375,163.2168 Q6976.6094,163.4668 6976.6094,164.0762 L6976.6094,165.5293 Q6976.6094,166.1387 6976.375,166.4043 Q6976.1406,166.6699 6975.7656,166.6699 Q6975.4219,166.6699 6975.2188,166.4668 Q6975.0156,166.2793 6974.9063,165.7637 Q6974.8594,165.4043 6974.6719,165.2168 Q6974.3438,164.8418 6973.7344,164.623 Q6973.125,164.4043 6972.5,164.4043 Q6971.7344,164.4043 6971.0938,164.7324 Q6970.4688,165.0605 6969.9688,165.8105 Q6969.4844,166.5605 6969.4844,167.5918 L6969.4844,168.6855 Q6969.4844,169.9199 6970.375,170.748 Q6971.2656,171.5605 6972.8594,171.5605 Q6973.7969,171.5605 6974.4531,171.3105 Q6974.8438,171.1543 6975.2656,170.7168 Q6975.5313,170.4512 6975.6719,170.373 Q6975.8281,170.2949 6976.0313,170.2949 Q6976.3594,170.2949 6976.6094,170.5605 Q6976.875,170.8105 6976.875,171.1543 Q6976.875,171.498 6976.5313,171.9043 Q6976.0313,172.4824 6975.2344,172.8105 Q6974.1563,173.2637 6972.8594,173.2637 Q6971.3438,173.2637 6970.1406,172.6387 Q6969.1563,172.1387 6968.4688,171.0762 Q6967.7813,169.998 6967.7813,168.7168 L6967.7813,167.5605 Q6967.7813,166.2324 6968.3906,165.0918 Q6969.0156,163.9355 6970.1094,163.3262 Q6971.2031,162.7012 6972.4375,162.7012 Q6973.1719,162.7012 6973.8125,162.873 Q6974.4688,163.0293 6975.0156,163.3887 Z " fill="#000000"/><text fill="#000000" font-family="sans-serif" font-size="14" lengthAdjust="spacing" textLength="123" x="6992.75" y="173.3105">DetectiveMessages</text><line style="stroke:#181818;stroke-width:0.5;" x1="6915" x2="7161" y1="183.5137" y2="183.5137"/><ellipse cx="6925" cy="198.3242" fill="none" rx="3" ry="3" style="stroke:#038048;stroke-width:1.0;"/><text fill="#000000" font-family="sans-serif" font-size="14" lengthAdjust="spacing" textLength="155" x="6934" y="202.6211">const ExitFromMenu : int</text><ellipse cx="6925" cy="216.9453" fill="none" rx="3" ry="3" style="stroke:#038048;stroke-width:1.0;"/><text fill="#000000" font-family="sans-serif" font-size="14" lengthAdjust="spacing" textLength="222" x="6934" y="221.2422">const EnterChoiceDetective : string</text><ellipse cx="6925" cy="235.5664" fill="none" rx="3" ry="3" style="stroke:#038048;stroke-width:1.0;"/><text fill="#000000" font-family="sans-serif" font-size="14" lengthAdjust="spacing" textLength="192" x="6934" y="239.8633">const EnterChoiceUser : string</text><text fill="#000000" font-family="sans-serif" font-size="14" lengthAdjust="spacing" textLength="4" x="6934" y="258.4844">&#160;</text><ellipse cx="6925" cy="272.8086" fill="none" rx="3" ry="3" style="stroke:#038048;stroke-width:1.0;"/><text fill="#000000" font-family="sans-serif" font-size="14" lengthAdjust="spacing" textLength="44" x="6934" y="277.1055">... ETC</text><line style="stroke:#181818;stroke-width:0.5;" x1="6915" x2="7161" y1="284.6191" y2="284.6191"/></g><!--class DetectiveTools--><g id="elem_DetectiveTools"><rect codeLine="145" fill="#F1F1F1" height="234.2109" id="DetectiveTools" rx="2.5" ry="2.5" style="stroke:#181818;stroke-width:0.5;" width="651" x="6227.5" y="105.0137"/><ellipse cx="6501.75" cy="121.0137" fill="#ADD1B2" rx="11" ry="11" style="stroke:#181818;stroke-width:1.0;"/><path d="M6504.5156,116.8887 Q6504.6719,116.6699 6504.8594,116.5605 Q6505.0469,116.4512 6505.2656,116.4512 Q6505.6406,116.4512 6505.875,116.7168 Q6506.1094,116.9668 6506.1094,117.5762 L6506.1094,119.0293 Q6506.1094,119.6387 6505.875,119.9043 Q6505.6406,120.1699 6505.2656,120.1699 Q6504.9219,120.1699 6504.7188,119.9668 Q6504.5156,119.7793 6504.4063,119.2637 Q6504.3594,118.9043 6504.1719,118.7168 Q6503.8438,118.3418 6503.2344,118.123 Q6502.625,117.9043 6502,117.9043 Q6501.2344,117.9043 6500.5938,118.2324 Q6499.9688,118.5605 6499.4688,119.3105 Q6498.9844,120.0605 6498.9844,121.0918 L6498.9844,122.1855 Q6498.9844,123.4199 6499.875,124.248 Q6500.7656,125.0605 6502.3594,125.0605 Q6503.2969,125.0605 6503.9531,124.8105 Q6504.3438,124.6543 6504.7656,124.2168 Q6505.0313,123.9512 6505.1719,123.873 Q6505.3281,123.7949 6505.5313,123.7949 Q6505.8594,123.7949 6506.1094,124.0605 Q6506.375,124.3105 6506.375,124.6543 Q6506.375,124.998 6506.0313,125.4043 Q6505.5313,125.9824 6504.7344,126.3105 Q6503.6563,126.7637 6502.3594,126.7637 Q6500.8438,126.7637 6499.6406,126.1387 Q6498.6563,125.6387 6497.9688,124.5762 Q6497.2813,123.498 6497.2813,122.2168 L6497.2813,121.0605 Q6497.2813,119.7324 6497.8906,118.5918 Q6498.5156,117.4355 6499.6094,116.8262 Q6500.7031,116.2012 6501.9375,116.2012 Q6502.6719,116.2012 6503.3125,116.373 Q6503.9688,116.5293 6504.5156,116.8887 Z " fill="#000000"/><text fill="#000000" font-family="sans-serif" font-size="14" lengthAdjust="spacing" textLength="94" x="6522.25" y="126.8105">DetectiveTools</text><line style="stroke:#181818;stroke-width:0.5;" x1="6228.5" x2="6877.5" y1="137.0137" y2="137.0137"/><rect fill="none" height="6" style="stroke:#C82930;stroke-width:1.0;" width="6" x="6235.5" y="148.8242"/><text fill="#000000" font-family="sans-serif" font-size="14" lengthAdjust="spacing" textLength="197" x="6247.5" y="156.1211">repository : ICriminalRepository</text><rect fill="none" height="6" style="stroke:#C82930;stroke-width:1.0;" width="6" x="6235.5" y="167.4453"/><text fill="#000000" font-family="sans-serif" font-size="14" lengthAdjust="spacing" textLength="180" x="6247.5" y="174.7422">serializer : ICriminalSerializer</text><text fill="#000000" font-family="sans-serif" font-size="14" lengthAdjust="spacing" textLength="4" x="6247.5" y="193.3633">&#160;</text><ellipse cx="6238.5" cy="207.6875" fill="none" rx="3" ry="3" style="stroke:#038048;stroke-width:1.0;"/><text fill="#000000" font-family="sans-serif" font-size="14" lengthAdjust="spacing" textLength="159" x="6247.5" y="211.9844">GetArrestedPeople : void</text><line style="stroke:#181818;stroke-width:0.5;" x1="6228.5" x2="6877.5" y1="219.498" y2="219.498"/><ellipse cx="6238.5" cy="234.3086" fill="#84BE84" rx="3" ry="3" style="stroke:#038048;stroke-width:1.0;"/><text fill="#000000" font-family="sans-serif" font-size="14" lengthAdjust="spacing" textLength="489" x="6247.5" y="238.6055">DetectiveTools(repository : ICriminalRepository, serializer : ICriminalSerializer)</text><text fill="#000000" font-family="sans-serif" font-size="14" lengthAdjust="spacing" textLength="4" x="6247.5" y="257.2266">&#160;</text><ellipse cx="6238.5" cy="271.5508" fill="#84BE84" rx="3" ry="3" style="stroke:#038048;stroke-width:1.0;"/><text fill="#000000" font-family="sans-serif" font-size="14" lengthAdjust="spacing" textLength="625" x="6247.5" y="275.8477">FindCriminalByParameters(height : int, weight : int, nationality : nationality) : IEnumerable&lt;Criminal&gt;</text><ellipse cx="6238.5" cy="290.1719" fill="#84BE84" rx="3" ry="3" style="stroke:#038048;stroke-width:1.0;"/><text fill="#000000" font-family="sans-serif" font-size="14" lengthAdjust="spacing" textLength="419" x="6247.5" y="294.4688">GetArrestedCriminals(criminal : Criminal)) : IEnumerable&lt;Criminal&gt;</text><ellipse cx="6238.5" cy="308.793" fill="#84BE84" rx="3" ry="3" style="stroke:#038048;stroke-width:1.0;"/><text fill="#000000" font-family="sans-serif" font-size="14" lengthAdjust="spacing" textLength="394" x="6247.5" y="313.0898">FindCriminals(height : int, weight : int, nationality : string) : void</text><polygon fill="#FFFF44" points="6238.5,322.4141,6242.5,326.4141,6238.5,330.4141,6234.5,326.4141" style="stroke:#B38D22;stroke-width:1.0;"/><text fill="#000000" font-family="sans-serif" font-size="14" lengthAdjust="spacing" textLength="144" x="6247.5" y="331.7109">SearchCriminal() : void</text></g><!--class ConsoleHelper--><g id="elem_ConsoleHelper"><rect codeLine="165" fill="#F1F1F1" height="178.3477" id="ConsoleHelper" rx="2.5" ry="2.5" style="stroke:#181818;stroke-width:0.5;" width="405" x="2073.5" y="133.0137"/><ellipse cx="2225.25" cy="149.0137" fill="#ADD1B2" rx="11" ry="11" style="stroke:#181818;stroke-width:1.0;"/><path d="M2228.0156,144.8887 Q2228.1719,144.6699 2228.3594,144.5605 Q2228.5469,144.4512 2228.7656,144.4512 Q2229.1406,144.4512 2229.375,144.7168 Q2229.6094,144.9668 2229.6094,145.5762 L2229.6094,147.0293 Q2229.6094,147.6387 2229.375,147.9043 Q2229.1406,148.1699 2228.7656,148.1699 Q2228.4219,148.1699 2228.2188,147.9668 Q2228.0156,147.7793 2227.9063,147.2637 Q2227.8594,146.9043 2227.6719,146.7168 Q2227.3438,146.3418 2226.7344,146.123 Q2226.125,145.9043 2225.5,145.9043 Q2224.7344,145.9043 2224.0938,146.2324 Q2223.4688,146.5605 2222.9688,147.3105 Q2222.4844,148.0605 2222.4844,149.0918 L2222.4844,150.1855 Q2222.4844,151.4199 2223.375,152.248 Q2224.2656,153.0605 2225.8594,153.0605 Q2226.7969,153.0605 2227.4531,152.8105 Q2227.8438,152.6543 2228.2656,152.2168 Q2228.5313,151.9512 2228.6719,151.873 Q2228.8281,151.7949 2229.0313,151.7949 Q2229.3594,151.7949 2229.6094,152.0605 Q2229.875,152.3105 2229.875,152.6543 Q2229.875,152.998 2229.5313,153.4043 Q2229.0313,153.9824 2228.2344,154.3105 Q2227.1563,154.7637 2225.8594,154.7637 Q2224.3438,154.7637 2223.1406,154.1387 Q2222.1563,153.6387 2221.4688,152.5762 Q2220.7813,151.498 2220.7813,150.2168 L2220.7813,149.0605 Q2220.7813,147.7324 2221.3906,146.5918 Q2222.0156,145.4355 2223.1094,144.8262 Q2224.2031,144.2012 2225.4375,144.2012 Q2226.1719,144.2012 2226.8125,144.373 Q2227.4688,144.5293 2228.0156,144.8887 Z " fill="#000000"/><text fill="#000000" font-family="sans-serif" font-size="14" lengthAdjust="spacing" textLength="93" x="2245.75" y="154.8105">ConsoleHelper</text><line style="stroke:#181818;stroke-width:0.5;" x1="2074.5" x2="2477.5" y1="165.0137" y2="165.0137"/><ellipse cx="2084.5" cy="179.8242" fill="none" rx="3" ry="3" style="stroke:#038048;stroke-width:1.0;"/><text fill="#000000" font-family="sans-serif" font-size="14" lengthAdjust="spacing" textLength="44" x="2093.5" y="184.1211">... ETC</text><line style="stroke:#181818;stroke-width:0.5;" x1="2074.5" x2="2477.5" y1="191.6348" y2="191.6348"/><rect fill="#F24D5C" height="6" style="stroke:#C82930;stroke-width:1.0;" width="6" x="2081.5" y="203.4453"/><text fill="#000000" font-family="sans-serif" font-size="14" lengthAdjust="spacing" text-decoration="underline" textLength="379" x="2093.5" y="210.7422">PrintColorLine(message : string, color : ConsoleColor) : void</text><text fill="#000000" font-family="sans-serif" font-size="14" lengthAdjust="spacing" textLength="4" x="2093.5" y="229.3633">&#160;</text><ellipse cx="2084.5" cy="243.6875" fill="#84BE84" rx="3" ry="3" style="stroke:#038048;stroke-width:1.0;"/><text fill="#000000" font-family="sans-serif" font-size="14" lengthAdjust="spacing" text-decoration="underline" textLength="221" x="2093.5" y="247.9844">UserInput(message : string) : string</text><ellipse cx="2084.5" cy="262.3086" fill="#84BE84" rx="3" ry="3" style="stroke:#038048;stroke-width:1.0;"/><text fill="#000000" font-family="sans-serif" font-size="14" lengthAdjust="spacing" text-decoration="underline" textLength="234" x="2093.5" y="266.6055">PrintSuccess(message : string) : void</text><ellipse cx="2084.5" cy="280.9297" fill="#84BE84" rx="3" ry="3" style="stroke:#038048;stroke-width:1.0;"/><text fill="#000000" font-family="sans-serif" font-size="14" lengthAdjust="spacing" text-decoration="underline" textLength="213" x="2093.5" y="285.2266">PrintError(message : string) : void</text><ellipse cx="2084.5" cy="299.5508" fill="#84BE84" rx="3" ry="3" style="stroke:#038048;stroke-width:1.0;"/><text fill="#000000" font-family="sans-serif" font-size="14" lengthAdjust="spacing" text-decoration="underline" textLength="234" x="2093.5" y="303.8477">PrintWarning(message : string) : void</text></g><!--class AppStarter--><g id="elem_AppStarter"><rect codeLine="175" fill="#F1F1F1" height="66.6211" id="AppStarter" rx="2.5" ry="2.5" style="stroke:#181818;stroke-width:0.5;" width="126" x="2514" y="188.5137"/><ellipse cx="2540.7" cy="204.5137" fill="#ADD1B2" rx="11" ry="11" style="stroke:#181818;stroke-width:1.0;"/><path d="M2543.4656,200.3887 Q2543.6219,200.1699 2543.8094,200.0605 Q2543.9969,199.9512 2544.2156,199.9512 Q2544.5906,199.9512 2544.825,200.2168 Q2545.0594,200.4668 2545.0594,201.0762 L2545.0594,202.5293 Q2545.0594,203.1387 2544.825,203.4043 Q2544.5906,203.6699 2544.2156,203.6699 Q2543.8719,203.6699 2543.6688,203.4668 Q2543.4656,203.2793 2543.3563,202.7637 Q2543.3094,202.4043 2543.1219,202.2168 Q2542.7938,201.8418 2542.1844,201.623 Q2541.575,201.4043 2540.95,201.4043 Q2540.1844,201.4043 2539.5438,201.7324 Q2538.9188,202.0605 2538.4188,202.8105 Q2537.9344,203.5605 2537.9344,204.5918 L2537.9344,205.6855 Q2537.9344,206.9199 2538.825,207.748 Q2539.7156,208.5605 2541.3094,208.5605 Q2542.2469,208.5605 2542.9031,208.3105 Q2543.2938,208.1543 2543.7156,207.7168 Q2543.9813,207.4512 2544.1219,207.373 Q2544.2781,207.2949 2544.4813,207.2949 Q2544.8094,207.2949 2545.0594,207.5605 Q2545.325,207.8105 2545.325,208.1543 Q2545.325,208.498 2544.9813,208.9043 Q2544.4813,209.4824 2543.6844,209.8105 Q2542.6063,210.2637 2541.3094,210.2637 Q2539.7938,210.2637 2538.5906,209.6387 Q2537.6063,209.1387 2536.9188,208.0762 Q2536.2313,206.998 2536.2313,205.7168 L2536.2313,204.5605 Q2536.2313,203.2324 2536.8406,202.0918 Q2537.4656,200.9355 2538.5594,200.3262 Q2539.6531,199.7012 2540.8875,199.7012 Q2541.6219,199.7012 2542.2625,199.873 Q2542.9188,200.0293 2543.4656,200.3887 Z " fill="#000000"/><text fill="#000000" font-family="sans-serif" font-size="14" lengthAdjust="spacing" textLength="68" x="2557.3" y="210.3105">AppStarter</text><line style="stroke:#181818;stroke-width:0.5;" x1="2515" x2="2639" y1="220.5137" y2="220.5137"/><ellipse cx="2525" cy="235.3242" fill="none" rx="3" ry="3" style="stroke:#038048;stroke-width:1.0;"/><text fill="#000000" font-family="sans-serif" font-size="14" lengthAdjust="spacing" text-decoration="underline" textLength="100" x="2534" y="239.6211">InitProject : void</text><line style="stroke:#181818;stroke-width:0.5;" x1="2515" x2="2639" y1="247.1348" y2="247.1348"/></g><!--class TheSearchView--><g id="elem_TheSearchView"><rect codeLine="178" fill="#F1F1F1" height="85.2422" id="TheSearchView" rx="2.5" ry="2.5" style="stroke:#181818;stroke-width:0.5;" width="168" x="2097" y="427.0137"/><ellipse cx="2128.65" cy="443.0137" fill="#ADD1B2" rx="11" ry="11" style="stroke:#181818;stroke-width:1.0;"/><path d="M2131.4156,438.8887 Q2131.5719,438.6699 2131.7594,438.5605 Q2131.9469,438.4512 2132.1656,438.4512 Q2132.5406,438.4512 2132.775,438.7168 Q2133.0094,438.9668 2133.0094,439.5762 L2133.0094,441.0293 Q2133.0094,441.6387 2132.775,441.9043 Q2132.5406,442.1699 2132.1656,442.1699 Q2131.8219,442.1699 2131.6188,441.9668 Q2131.4156,441.7793 2131.3063,441.2637 Q2131.2594,440.9043 2131.0719,440.7168 Q2130.7438,440.3418 2130.1344,440.123 Q2129.525,439.9043 2128.9,439.9043 Q2128.1344,439.9043 2127.4938,440.2324 Q2126.8688,440.5605 2126.3688,441.3105 Q2125.8844,442.0605 2125.8844,443.0918 L2125.8844,444.1855 Q2125.8844,445.4199 2126.775,446.248 Q2127.6656,447.0605 2129.2594,447.0605 Q2130.1969,447.0605 2130.8531,446.8105 Q2131.2438,446.6543 2131.6656,446.2168 Q2131.9313,445.9512 2132.0719,445.873 Q2132.2281,445.7949 2132.4313,445.7949 Q2132.7594,445.7949 2133.0094,446.0605 Q2133.275,446.3105 2133.275,446.6543 Q2133.275,446.998 2132.9313,447.4043 Q2132.4313,447.9824 2131.6344,448.3105 Q2130.5563,448.7637 2129.2594,448.7637 Q2127.7438,448.7637 2126.5406,448.1387 Q2125.5563,447.6387 2124.8688,446.5762 Q2124.1813,445.498 2124.1813,444.2168 L2124.1813,443.0605 Q2124.1813,441.7324 2124.7906,440.5918 Q2125.4156,439.4355 2126.5094,438.8262 Q2127.6031,438.2012 2128.8375,438.2012 Q2129.5719,438.2012 2130.2125,438.373 Q2130.8688,438.5293 2131.4156,438.8887 Z " fill="#000000"/><text fill="#000000" font-family="sans-serif" font-size="14" lengthAdjust="spacing" textLength="99" x="2146.35" y="448.8105">TheSearchView</text><line style="stroke:#181818;stroke-width:0.5;" x1="2098" x2="2264" y1="459.0137" y2="459.0137"/><ellipse cx="2108" cy="473.8242" fill="none" rx="3" ry="3" style="stroke:#038048;stroke-width:1.0;"/><text fill="#000000" font-family="sans-serif" font-size="14" lengthAdjust="spacing" text-decoration="underline" textLength="107" x="2117" y="478.1211">ShowMenu : void</text><ellipse cx="2108" cy="492.4453" fill="none" rx="3" ry="3" style="stroke:#038048;stroke-width:1.0;"/><text fill="#000000" font-family="sans-serif" font-size="14" lengthAdjust="spacing" text-decoration="underline" textLength="142" x="2117" y="496.7422">ShowMenuLogin : void</text><line style="stroke:#181818;stroke-width:0.5;" x1="2098" x2="2264" y1="504.2559" y2="504.2559"/></g><!--class DetectiveView--><g id="elem_DetectiveView"><rect codeLine="182" fill="#F1F1F1" height="122.4844" id="DetectiveView" rx="2.5" ry="2.5" style="stroke:#181818;stroke-width:0.5;" width="339" x="2300.5" y="408.5137"/><ellipse cx="2421.75" cy="424.5137" fill="#ADD1B2" rx="11" ry="11" style="stroke:#181818;stroke-width:1.0;"/><path d="M2424.5156,420.3887 Q2424.6719,420.1699 2424.8594,420.0605 Q2425.0469,419.9512 2425.2656,419.9512 Q2425.6406,419.9512 2425.875,420.2168 Q2426.1094,420.4668 2426.1094,421.0762 L2426.1094,422.5293 Q2426.1094,423.1387 2425.875,423.4043 Q2425.6406,423.6699 2425.2656,423.6699 Q2424.9219,423.6699 2424.7188,423.4668 Q2424.5156,423.2793 2424.4063,422.7637 Q2424.3594,422.4043 2424.1719,422.2168 Q2423.8438,421.8418 2423.2344,421.623 Q2422.625,421.4043 2422,421.4043 Q2421.2344,421.4043 2420.5938,421.7324 Q2419.9688,422.0605 2419.4688,422.8105 Q2418.9844,423.5605 2418.9844,424.5918 L2418.9844,425.6855 Q2418.9844,426.9199 2419.875,427.748 Q2420.7656,428.5605 2422.3594,428.5605 Q2423.2969,428.5605 2423.9531,428.3105 Q2424.3438,428.1543 2424.7656,427.7168 Q2425.0313,427.4512 2425.1719,427.373 Q2425.3281,427.2949 2425.5313,427.2949 Q2425.8594,427.2949 2426.1094,427.5605 Q2426.375,427.8105 2426.375,428.1543 Q2426.375,428.498 2426.0313,428.9043 Q2425.5313,429.4824 2424.7344,429.8105 Q2423.6563,430.2637 2422.3594,430.2637 Q2420.8438,430.2637 2419.6406,429.6387 Q2418.6563,429.1387 2417.9688,428.0762 Q2417.2813,426.998 2417.2813,425.7168 L2417.2813,424.5605 Q2417.2813,423.2324 2417.8906,422.0918 Q2418.5156,420.9355 2419.6094,420.3262 Q2420.7031,419.7012 2421.9375,419.7012 Q2422.6719,419.7012 2423.3125,419.873 Q2423.9688,420.0293 2424.5156,420.3887 Z " fill="#000000"/><text fill="#000000" font-family="sans-serif" font-size="14" lengthAdjust="spacing" textLength="88" x="2442.25" y="430.3105">DetectiveView</text><line style="stroke:#181818;stroke-width:0.5;" x1="2301.5" x2="2638.5" y1="440.5137" y2="440.5137"/><rect fill="none" height="6" style="stroke:#C82930;stroke-width:1.0;" width="6" x="2308.5" y="452.3242"/><text fill="#000000" font-family="sans-serif" font-size="14" lengthAdjust="spacing" textLength="198" x="2320.5" y="459.6211">detectiveTools : DetectiveTools</text><text fill="#000000" font-family="sans-serif" font-size="14" lengthAdjust="spacing" textLength="4" x="2320.5" y="478.2422">&#160;</text><ellipse cx="2311.5" cy="492.5664" fill="none" rx="3" ry="3" style="stroke:#038048;stroke-width:1.0;"/><text fill="#000000" font-family="sans-serif" font-size="14" lengthAdjust="spacing" textLength="166" x="2320.5" y="496.8633">ShowDetectiveMenu : void</text><line style="stroke:#181818;stroke-width:0.5;" x1="2301.5" x2="2638.5" y1="504.377" y2="504.377"/><ellipse cx="2311.5" cy="519.1875" fill="#84BE84" rx="3" ry="3" style="stroke:#038048;stroke-width:1.0;"/><text fill="#000000" font-family="sans-serif" font-size="14" lengthAdjust="spacing" textLength="313" x="2320.5" y="523.4844">DetectiveView : (detectiveTools : DetectiveTools))</text></g><!--SRC=[lLZRRjis6BxtKn3PZOmbUO2YAE0wSUl2oOmbJIw6NJ3oNvkjB0eaLJSh_EuZJHqedYHvnNHbyp-VFlvIWTDlU0leuevk8ECNwES4oQUeZZzpOFf4FMc6ERVErFCxokYMvEWDueAHV6iH2obre6pZqe_DB_mYIJWLXes5_4lPgstg9nTOaFI8vWom0CMPdCpNsYyRW_N9zCr9OMiMJLhhdNZdZEn9ZZCxPlTSEqDKK1zAih7Eln36nJtUGoWdKckKlWEotGb99RcmI8SmAPUPeT9D8bv3YWcVCGPSWFByXT8CS6ua1jMfEKucTL8kbgjuNqX7W7t1AQ2b8lm91UN4LxiF86PPbaobwULjNkw1uPSCtYgXTvwciFG-02Cojd_SzciefsvGwhzJfoOtm1qsnukc8rfFZZqTOdXP4qTde1PyvxB_aMUlTSd6oDrJCKBi60jdGE9bK3Kt3nMWPQxy6YvX1DCZ52wwu-AGH1hoPnN2a3-d8DtUkm41gI3VmTjy7ghsOK7o9cllNzUOIToHKZmnGUQomfNgZu4a3OeExpstLcdrAwJZl8Iiw7OR029DkWFE9QET4KryADDKqfEzPa9ce9vcr4AtZ57MBr9vMpUbYQOtCmTEVNZXXzhsIke56_LSeLAASwGlmB_-TXYSWngYeX3TgfzjDcPjQv-yATJgbpaHUY3y0tpqO58OV4VdetQM6zx-XxpuXy0BtkCa3RGOBFX_b2C-WBeK3H99ShS6LsfJRETIHTOPL0SzMqL9N78QkmMMV5QANQ9ceHg5gM_xiSBewESsXgGqvm9L679duO6NTu59LZ88ydhiFz85oS3EeLPd9cUDnSvl_AfTc9yP4U12rv1hT1JsdOMnlkxwn6bkzvOwcrE9yp-4loBDdHFEISrQ3rW_fp6D_SoglrI_tM21_Tn7Jr1AIadCJWcpIrvszchL_TrDstB4LPZqQOWEq2zSi9sActVZ-vLpD_QzaiNdSxdfcSc-5pNDji93k3xM-rI4vta0ptt_QrmLdVaov-sntWNIGknuDcz_4B5WT7y7UUbz0QtOr1estr6IGgCu7eWXyLc3j8VPaho-laQtZ_FWK3Mc7oNEEmF5EgFWxWuMUzFPp6HlNun25zV9Tj9dxB9NVtGwHotuoDtmvP7nxrVj-StoSOR2DT0Y0p_CcD6E2J5oM_qc0GwpT5UhJQBNaswl9wbtWsNrWX-eAWxGiD3nrBT-1AGrO2I7ywGDA4b2wJ1LTU7ugK7Z2dFbi4hUZv0Lzak9iMUifM8nfnbbAvAx2yUbd7b9KnsYrPrOXsmXZGM54SkyA8Lth_3YJDUxaQz-NU5HQr1Nz1cpNF8E5ROX3hNVvzgYp8hYGM0c8Do9QibVC_fLOf9foDJok0Cz0qy43a553pjwgC0_5clDjge-2tijDXZfMhn2cmw0IXLTH0t1hL8bcPCUyMbysP7U6nTY4wtnQNJoBm00]--></g></svg>
